# Blender v2.79 (sub 0) OBJ File: ''
# www.blender.org
mtllib SuperiorLob.mtl
o LungRightLow_Icosphere.002
v 0.179490 0.319936 -0.178584
v 0.108661 0.516101 0.009209
v 0.029160 0.408789 0.004892
v 0.214996 0.431161 0.087095
v 0.194200 0.559398 -0.023090
v 0.200382 0.459743 0.084987
v 0.188149 0.454651 -0.160306
v 0.174232 0.589386 -0.098057
v 0.199491 0.531515 -0.043471
v 0.067383 0.424209 -0.193660
v 0.089472 0.539221 -0.149436
v 0.142024 0.470961 -0.180456
v 0.003162 0.402409 -0.052084
v 0.047813 0.518119 -0.069090
v 0.025796 0.444400 -0.139775
v 0.148478 0.603738 -0.056230
v 0.197401 0.310775 -0.151362
v 0.227916 0.385172 0.098794
v 0.196045 0.387479 0.107739
v 0.176692 0.363766 0.071921
v 0.207643 0.361893 0.108842
v 0.024920 0.396682 0.004688
v 0.042571 0.395448 0.024947
v 0.001686 0.392917 -0.047820
v 0.179576 0.311002 -0.176818
v 0.041784 0.350748 -0.190569
v 0.000953 0.391379 -0.056285
v 0.005997 0.376406 -0.120604
v 0.092607 0.330611 -0.211765
v 0.081927 0.333951 -0.211586
v 0.167559 0.375232 0.113361
v 0.089616 0.390240 0.069738
v 0.185639 0.369756 0.113914
v 0.175969 0.311442 -0.180058
v 0.118078 0.384933 0.086499
v 0.026259 0.359860 -0.169902
v 0.029916 0.396860 0.012949
v 0.105169 0.371710 0.003947
v 0.150733 0.317152 -0.190103
vt 0.129612 0.252129
vt 0.128300 0.259700
vt 0.125299 0.252297
vt 0.147575 0.250139
vt 0.360932 0.360402
vt 0.274700 0.371200
vt 0.319200 0.317600
vt 0.335419 0.327283
vt 0.319400 0.453700
vt 0.227200 0.397300
vt 0.306100 0.431900
vt 0.177300 0.326000
vt 0.217300 0.360400
vt 0.199800 0.413000
vt 0.219200 0.283900
vt 0.227200 0.328900
vt 0.197400 0.314800
vt 0.296100 0.291500
vt 0.258500 0.332800
vt 0.248400 0.292900
vt 0.232400 0.364100
vt 0.296418 0.284367
vt 0.270568 0.260126
vt 0.238554 0.248591
vt 0.227475 0.244406
vt 0.196906 0.239790
vt 0.191965 0.239151
vt 0.100200 0.266600
vt 0.737282 0.824097
vt 0.780500 0.978100
vt 0.660900 0.890300
vt 0.682010 0.851778
vt 0.668100 0.918900
vt 0.370000 0.447200
vt 0.393801 0.421185
vt 0.362463 0.379078
vt 0.330068 0.315967
vt 0.323716 0.310462
vt 0.301623 0.287642
vt 0.641100 0.894600
vt 0.647938 0.872149
vt 0.902000 0.811600
vt 0.390039 0.441322
vt 0.634361 0.880410
vn 0.1942 -0.7869 -0.5857
vn 0.6332 -0.0013 -0.7740
vn 0.3931 -0.8344 -0.3864
vn 0.0674 -0.7592 -0.6474
vn -0.5869 -0.3437 0.7331
vn -0.4330 0.5960 0.6763
vn -0.7600 0.3869 0.5222
vn -0.6588 -0.3826 0.6478
vn 0.7509 0.3370 0.5680
vn 0.6679 0.6224 0.4080
vn 0.2792 0.5594 0.7804
vn 0.7855 0.1791 -0.5924
vn 0.5030 0.7501 -0.4293
vn 0.9941 0.0583 -0.0916
vn -0.3761 0.2766 -0.8843
vn -0.3852 0.6637 -0.6412
vn 0.2453 0.3185 -0.9156
vn -0.9443 0.3046 0.1244
vn -0.7982 0.5870 0.1354
vn -0.8549 0.3364 -0.3950
vn -0.0712 0.9713 0.2268
vn -0.8797 -0.4689 0.0794
vn -0.8767 -0.4761 -0.0689
vn -0.8042 -0.5108 -0.3039
vn -0.6771 -0.5431 -0.4966
vn -0.3374 -0.6127 -0.7147
vn -0.0689 -0.6795 -0.7304
vn 0.6669 -0.7451 0.0007
vn 0.1046 -0.9853 0.1353
vn 0.9243 -0.2437 0.2938
vn 0.1824 -0.9414 -0.2837
vn 0.1916 0.2559 0.9475
vn -0.3351 -0.3692 0.8668
vn -0.5138 -0.3753 0.7715
vn -0.7110 -0.3624 0.6026
vn -0.7978 -0.4240 0.4286
vn -0.8580 -0.4198 0.2959
vn 0.4543 -0.7394 0.4969
vn -0.0888 -0.4832 0.8710
usemtl None.009
s 1
f 34/1/1 1/2/2 25/3/3
f 34/1/1 39/4/4 1/2/2
f 32/5/5 2/6/6 3/7/7 23/8/8
f 4/9/9 5/10/10 6/11/11
f 7/12/12 8/13/13 9/14/14
f 10/15/15 11/16/16 12/17/17
f 13/18/18 14/19/19 15/20/20
f 14/19/19 16/21/21 11/16/16
f 14/19/19 11/16/16 15/20/20
f 15/20/20 11/16/16 10/15/15
f 11/16/16 16/21/21 8/13/13
f 11/16/16 8/13/13 12/17/17
f 12/17/17 8/13/13 7/12/12
f 8/13/13 16/21/21 5/10/10
f 8/13/13 5/10/10 9/14/14
f 9/14/14 5/10/10 4/9/9
f 5/10/10 16/21/21 2/6/6
f 5/10/10 2/6/6 6/11/11
f 2/6/6 16/21/21 14/19/19
f 2/6/6 14/19/19 3/7/7
f 3/7/7 14/19/19 13/18/18
f 27/22/22 13/18/18 15/20/20 28/23/23
f 28/23/23 15/20/20 36/24/24
f 36/24/24 15/20/20 10/15/15 26/25/25
f 30/26/26 10/15/15 12/17/17 29/27/27
f 29/27/27 12/17/17 1/2/2 39/4/4
f 1/2/2 12/17/17 7/12/12
f 17/28/28 7/12/12 9/14/14
f 38/29/29 9/30/14 18/31/30 20/32/31
f 18/31/30 9/30/14 4/33/9
f 19/34/32 4/9/9 6/11/11
f 31/35/33 6/11/11 35/36/34
f 37/37/35 23/8/8 3/7/7
f 22/38/36 3/7/7 13/18/18 24/39/37
f 26/25/25 10/15/15 30/26/26
f 1/2/2 7/12/12 17/28/28
f 18/31/30 4/33/9 19/40/32
f 21/41/38 20/32/31 18/31/30
f 24/39/37 13/18/18 27/22/22
f 17/42/28 9/30/14 38/29/29
f 37/37/35 3/7/7 22/38/36
f 6/11/11 2/6/6 32/5/5 35/36/34
f 19/34/32 6/11/11 31/35/33 33/43/39
f 18/31/30 19/40/32 33/44/39 21/41/38
f 1/2/2 17/28/28 25/3/3
f 35/36/34 32/5/5 23/8/8 37/37/35 22/38/36 24/39/37 38/29/29 20/32/31 21/41/38 33/43/39 31/35/33
f 39/4/4 34/1/1 25/3/3 17/42/28 38/29/29 24/39/37 27/22/22 28/23/23 36/24/24 26/25/25 30/26/26 29/27/27
