# Blender v2.79 (sub 0) OBJ File: ''
# www.blender.org
mtllib LeftLung.mtl
o LungLeftLow_Icosphere.001
v -0.095393 -0.046258 0.038762
v -0.171605 -0.127832 -0.071329
v -0.106708 0.016171 0.164344
v -0.051859 0.063999 0.037442
v -0.173199 -0.024964 -0.034761
v -0.092750 -0.008036 0.036813
v -0.098659 -0.075426 -0.183909
v -0.157675 -0.130171 -0.121919
v -0.155821 0.062446 -0.159991
v -0.002879 0.049534 -0.170136
v -0.135271 -0.064381 0.174899
v -0.061981 0.053360 -0.197580
v 0.043422 0.030482 -0.077076
v -0.060476 0.096599 0.105716
v -0.005492 0.151299 0.023484
v -0.084993 0.258611 0.027802
v -0.191328 0.173671 0.105688
v -0.176714 0.202253 0.103580
v -0.169599 0.319772 -0.003128
v -0.165921 0.195602 -0.136705
v -0.174890 0.291889 -0.023508
v -0.168187 0.332967 -0.084293
v -0.043714 0.166719 -0.175067
v -0.118355 0.213471 -0.161864
v -0.065804 0.281731 -0.130843
v 0.020506 0.144919 -0.033491
v -0.002128 0.186909 -0.121182
v -0.024144 0.260629 -0.050497
v -0.124810 0.346248 -0.037637
v -0.173733 0.053285 -0.132769
v -0.199005 0.115380 0.122999
v -0.172377 0.129988 0.126332
v -0.170690 -0.060577 -0.062029
v -0.101024 -0.100512 -0.180929
v -0.044368 -0.059084 -0.186719
v -0.142607 -0.121120 -0.055772
v -0.022325 -0.041991 -0.176930
v -0.153025 -0.134565 -0.126615
v 0.010880 -0.014449 -0.140072
v -0.080269 -0.085357 -0.183314
v -0.160058 -0.136770 -0.089643
v -0.148275 -0.145891 -0.108334
v -0.139176 -0.147649 -0.140601
v -0.081594 -0.030185 0.164291
v -0.017203 0.016260 0.117474
v 0.043779 0.025338 -0.074261
v -0.127737 -0.069143 0.173876
v 0.033797 0.039121 0.021598
v 0.042539 0.028783 -0.055036
v -0.129796 -0.069352 0.180756
v -0.013923 0.018220 0.113376
v -0.077052 -0.057492 0.031848
v 0.041409 0.021689 -0.080725
v 0.036828 0.039950 0.013665
v -0.128066 -0.067666 0.181349
v -0.023942 0.011551 0.123017
v -0.086700 -0.059336 0.060462
v -0.062252 -0.095086 -0.182732
v -0.141746 -0.150945 -0.118690
v -0.103900 -0.131012 -0.177307
v -0.041543 -0.077115 -0.184978
v -0.122719 -0.116517 -0.045101
v -0.026627 -0.062238 -0.178433
v 0.011737 -0.018433 -0.138200
v 0.022201 -0.004284 -0.117932
v -0.096382 -0.082477 -0.000724
v -0.135306 -0.151306 -0.144509
v -0.118301 -0.140318 -0.162268
v -0.125046 -0.120729 -0.054104
vt 0.775053 0.161936
vt 0.787400 0.177600
vt 0.677400 0.207000
vt 0.688658 0.189045
vt 0.741751 0.168198
vt 0.660348 0.202464
vt 0.849600 0.248900
vt 0.734200 0.247300
vt 0.805400 0.205300
vt 0.459500 0.710900
vt 0.554200 0.703100
vt 0.436500 0.847000
vt 0.342736 0.697192
vt 0.390050 0.699036
vt 0.340100 0.751700
vt 0.903600 0.159200
vt 0.874900 0.116400
vt 0.378200 0.783000
vt 0.113000 0.730100
vt 0.185200 0.767800
vt 0.154900 0.851400
vt 0.048800 0.830200
vt 0.073000 0.837800
vt 0.142700 0.938500
vt 0.785600 0.438600
vt 0.922100 0.452100
vt 0.893200 0.513700
vt 0.310600 0.829000
vt 0.315200 0.890400
vt 0.256400 0.879700
vt 0.226900 0.769300
vt 0.269100 0.814200
vt 0.216200 0.843900
vt 0.190500 0.918200
vt 0.219600 0.964600
vt 0.343300 0.926300
vt 0.950600 0.466600
vt 0.986500 0.303100
vt 0.281900 0.705300
vt 0.717900 0.340000
vt 0.980000 0.250700
vt 0.038900 0.785000
vt 0.028100 0.663600
vt 0.133783 0.659464
vt 0.129897 0.658286
vt 0.211584 0.687949
vt 0.217007 0.689383
vt 0.449758 0.695975
vt 0.411728 0.698141
vt 0.700300 0.361200
vt 0.643800 0.217900
vt 0.703600 0.235400
vt 0.012000 0.789300
vt 0.267005 0.698827
vt 0.281330 0.700737
vt 0.287719 0.700600
vt 0.472628 0.690998
vt 0.550288 0.696263
vt 0.638158 0.214533
vt 0.871804 0.111369
vt 0.877331 0.111202
vt 0.796274 0.156420
vt 0.342900 0.693798
vt 0.323440 0.696197
vt 0.642946 0.197834
vt 0.621354 0.204507
vt 0.401100 0.687385
vt 0.696379 0.176730
vt 0.688663 0.178998
vt 0.440213 0.681354
vt 0.417104 0.684534
vt 0.488590 0.666799
vt 0.535382 0.670213
vt 0.538637 0.675903
vt 0.510046 0.668365
vt 0.633304 0.195269
vt 0.616658 0.201706
vt 0.012492 0.570148
vt 0.056806 0.622474
vt 0.878589 0.111698
vt 0.120342 0.654636
vn -0.3791 -0.8476 0.3714
vn -0.8293 -0.5072 0.2344
vn -0.7836 -0.5528 0.2834
vn -0.1071 -0.8247 0.5554
vn -0.1905 -0.7211 0.6662
vn -0.4552 -0.8790 0.1420
vn -0.9945 -0.1049 0.0075
vn -0.8590 -0.0347 0.5109
vn -0.9422 0.1841 0.2800
vn -0.3534 -0.0958 -0.9305
vn -0.8665 -0.2958 -0.4021
vn -0.6352 0.0032 -0.7723
vn 0.8424 -0.0699 -0.5342
vn 0.6180 -0.0732 -0.7828
vn 0.7057 0.0566 -0.7062
vn -0.4371 0.3495 0.8287
vn -0.9793 -0.0361 0.1993
vn 0.0385 0.0489 -0.9981
vn 0.4818 0.4134 0.7727
vn 0.7600 0.3869 0.5222
vn 0.4687 0.5744 0.6711
vn -0.8140 0.2634 0.5178
vn -0.2555 0.5345 0.8056
vn -0.5648 0.6741 0.4760
vn -0.8192 0.1356 -0.5572
vn -0.9997 0.0113 -0.0214
vn -0.5893 0.6924 -0.4162
vn 0.3762 0.2766 -0.8843
vn -0.2556 0.2949 -0.9207
vn 0.4040 0.6566 -0.6369
vn 0.9443 0.3046 0.1244
vn 0.8549 0.3364 -0.3950
vn 0.7982 0.5870 0.1354
vn 0.1997 0.9622 0.1850
vn 0.9740 0.0849 -0.2101
vn -0.9903 0.0026 -0.1386
vn -0.9072 -0.2864 0.3081
vn -0.1675 0.2726 0.9474
vn 0.6636 0.3894 0.6388
vn 0.5119 0.3879 0.7665
vn 0.8540 0.2919 0.4306
vn 0.9349 0.2558 0.2459
vn -0.0258 -0.1073 -0.9939
vn 0.2046 -0.0623 -0.9769
vn -0.9656 -0.1124 0.2343
vn 0.9840 0.1701 0.0525
vn 0.9939 0.0089 -0.1100
vn 0.9075 -0.0341 -0.4186
vn -0.4037 -0.0703 -0.9122
vn -0.8080 -0.3436 -0.4786
vn -0.7948 -0.5425 -0.2721
vn -0.7926 -0.1904 0.5793
vn -0.8379 -0.4569 -0.2987
vn 0.8374 -0.0744 -0.5416
vn 0.8936 -0.0185 -0.4484
vn 0.5090 -0.0443 -0.8596
vn -0.1507 -0.7741 0.6148
vn -0.0205 -0.9035 0.4280
vn -0.0248 -0.1055 -0.9941
vn 0.1232 -0.0763 -0.9894
vn -0.5697 -0.0438 -0.8207
vn -0.7793 -0.1848 -0.5988
vn -0.7175 -0.0151 -0.6964
vn -0.6628 -0.7468 -0.0534
vn -0.4175 0.2816 0.8640
vn 0.3388 0.1825 0.9230
vn 0.4360 0.3332 0.8360
usemtl None.006
s 1
f 52/1/1 1/2/2 2/3/3 36/4/4 66/5/5
f 36/4/4 2/3/3 41/6/6
f 4/7/7 5/8/8 6/9/9
f 7/10/10 8/11/11 9/12/12
f 39/13/13 37/14/14 10/15/15
f 3/16/16 4/7/7 6/9/9 11/17/17
f 7/10/10 9/12/12 12/18/18
f 14/19/19 15/20/20 16/21/21
f 17/22/22 18/23/23 19/24/24
f 20/25/25 21/26/26 22/27/27
f 23/28/28 24/29/29 25/30/30
f 26/31/31 27/32/32 28/33/33
f 28/33/33 25/30/30 29/34/34
f 28/33/33 27/32/32 25/30/30
f 27/32/32 23/28/28 25/30/30
f 25/30/30 22/35/27 29/34/34
f 25/30/30 24/29/29 22/35/27
f 24/29/29 20/36/25 22/35/27
f 22/35/27 19/24/24 29/34/34
f 22/27/27 21/26/26 19/37/24
f 21/26/26 17/38/22 19/37/24
f 19/24/24 16/21/21 29/34/34
f 19/24/24 18/23/23 16/21/21
f 18/23/23 14/19/19 16/21/21
f 16/21/21 28/33/33 29/34/34
f 16/21/21 15/20/20 28/33/33
f 15/20/20 26/31/31 28/33/33
f 13/39/35 27/32/32 26/31/31
f 13/39/35 10/15/15 27/32/32
f 10/15/15 23/28/28 27/32/32
f 12/18/18 24/29/29 23/28/28
f 12/18/18 9/12/12 24/29/29
f 9/12/12 20/36/25 24/29/29
f 30/40/36 21/26/26 20/25/25
f 4/7/7 31/41/37 21/26/26
f 31/41/37 17/38/22 21/26/26
f 32/42/38 18/23/23 17/22/22
f 32/42/38 3/43/16 18/23/23
f 3/43/16 14/19/19 18/23/23
f 51/44/39 15/20/20 14/19/19 45/45/40
f 51/44/39 48/46/41 15/20/20
f 54/47/42 26/31/31 15/20/20 48/46/41
f 10/15/15 12/18/18 23/28/28
f 40/48/43 7/10/10 12/18/18 35/49/44
f 9/50/12 30/40/36 20/25/25
f 9/50/12 8/51/11 30/40/36
f 8/51/11 33/52/45 30/40/36
f 31/53/37 32/42/38 17/22/22
f 3/16/16 31/41/37 4/7/7
f 49/54/46 13/39/35 26/31/31 54/47/42
f 46/55/47 53/56/48 13/39/35
f 34/57/49 7/10/10 40/48/43
f 38/58/50 8/11/11 7/10/10 34/57/49
f 41/6/6 2/3/3 8/51/11 38/59/50
f 2/3/3 33/52/45 8/51/11
f 6/9/9 33/52/45 2/3/3 1/2/2
f 47/60/51 50/61/52 11/17/17
f 5/8/8 4/7/7 30/40/36
f 33/52/45 6/9/9 5/8/8
f 57/62/53 1/2/2 52/1/1
f 30/40/36 4/7/7 21/26/26
f 33/52/45 5/8/8 30/40/36
f 31/53/37 3/43/16 32/42/38
f 64/63/54 39/13/13 65/64/55
f 42/65/6 41/6/6 38/59/50 43/66/50
f 64/63/54 63/67/56 37/14/14 39/13/13
f 62/68/57 66/5/5 36/4/4
f 62/68/57 36/4/4 41/6/6 42/65/6 69/69/58
f 58/70/59 40/48/43 35/49/44 61/71/60
f 10/15/15 37/14/14 35/49/44 12/18/18
f 49/54/46 46/55/47 13/39/35
f 60/72/61 34/57/49 40/48/43 58/70/59
f 67/73/62 43/74/50 68/75/63
f 59/76/64 42/65/6 43/66/50 67/77/62
f 59/76/64 69/69/58 42/65/6
f 55/78/65 44/79/66 3/43/16
f 37/14/14 63/67/56 61/71/60 35/49/44
f 43/74/50 38/58/50 34/57/49 60/72/61 68/75/63
f 39/13/13 10/15/15 13/39/35 53/56/48 65/64/55
f 11/17/17 50/61/52 55/80/65 3/16/16
f 1/2/2 57/62/53 47/60/51 11/17/17 6/9/9
f 3/43/16 56/81/67 45/45/40 14/19/19
f 3/43/16 44/79/66 56/81/67
o LungLeftLow_Icosphere
v 0.094243 -0.229198 -0.001589
v 0.112600 -0.229302 0.077620
v 0.027157 -0.163748 0.166740
v 0.111371 -0.157942 0.094798
v 0.125784 -0.148679 0.001555
v 0.053255 -0.135432 0.014206
v -0.035336 -0.219666 -0.167855
v 0.104818 -0.232993 -0.096336
v 0.112369 -0.019877 0.025328
v -0.055850 -0.113085 0.185888
v 0.039583 -0.162088 0.168192
v 0.094546 -0.107337 -0.112523
v 0.036335 -0.151736 -0.177899
v 0.058511 -0.031757 0.122244
v 0.012039 -0.111247 0.168250
v -0.017399 -0.136554 0.177018
v -0.032977 -0.194648 -0.170826
v 0.118520 -0.044087 -0.055675
v 0.033836 -0.135781 -0.179440
v -0.003470 -0.148561 -0.016227
v 0.023575 -0.144846 -0.178311
v -0.016404 -0.136215 0.172657
v -0.014873 -0.134126 0.178290
v 0.112236 -0.038280 0.034588
v 0.041221 -0.128741 -0.176192
v -0.048916 -0.206835 -0.154141
v 0.088619 -0.079773 -0.125474
v 0.024778 -0.117990 0.024941
v 0.105204 -0.060797 -0.093206
v 0.114263 -0.038061 0.021972
v 0.051583 -0.079462 0.139062
v -0.051168 -0.207411 -0.142743
v 0.072063 -0.064108 0.115208
v 0.002925 -0.127290 0.106246
v 0.002121 -0.092940 0.168271
v -0.039851 -0.122850 0.182197
v 0.117311 -0.026678 -0.065202
v -0.038403 -0.122310 0.175645
v 0.112347 -0.022890 0.026844
v 0.001931 -0.103997 0.033554
v 0.111783 -0.032068 -0.081282
v 0.112675 -0.022814 0.024786
v 0.054851 -0.056957 0.131128
v 0.066037 -0.049722 0.118337
v -0.009305 -0.108890 0.075714
v -0.038647 -0.121919 0.182698
v -0.001234 -0.086746 0.168278
v -0.054685 -0.113796 0.185619
v 0.026091 -0.146205 -0.178230
v -0.051749 -0.113875 0.177458
v 0.119853 -0.063272 -0.045178
v 0.034713 -0.141380 -0.178899
v 0.112157 -0.049202 0.040084
v 0.039174 -0.138376 -0.176907
v 0.091940 -0.095217 -0.118218
v 0.098920 -0.088236 -0.104595
v 0.115678 -0.051648 0.019464
v 0.088193 -0.053737 0.082837
v 0.015082 -0.152325 -0.177187
v -0.031424 -0.178180 -0.172782
v -0.047844 -0.158832 -0.040034
v 0.011114 -0.109622 0.030092
v 0.054044 -0.062517 0.133088
v 0.069223 -0.057327 0.116682
v -0.008313 -0.110381 0.078190
v -0.054588 -0.113733 0.185654
v -0.013432 -0.110793 0.089888
v 0.033522 -0.071512 0.146152
v -0.008704 -0.072959 0.168294
v 0.055687 -0.026514 0.121477
v 0.116669 -0.017436 -0.070258
v -0.054848 -0.111917 0.177879
v 0.106687 -0.003653 0.025601
v 0.115429 -0.013991 -0.051033
v -0.056906 -0.112126 0.184759
v 0.058967 -0.024554 0.117379
v -0.004162 -0.100266 0.035851
v 0.114298 -0.021085 -0.076723
v 0.109717 -0.002824 0.017667
v -0.055176 -0.110441 0.185352
v 0.048948 -0.031223 0.127019
v -0.013811 -0.102110 0.064465
v 0.010638 -0.137860 -0.178729
v -0.068856 -0.193719 -0.114687
v -0.031010 -0.173786 -0.173304
v 0.031347 -0.119889 -0.180975
v -0.049829 -0.159291 -0.041099
v 0.046262 -0.105012 -0.174430
v 0.084626 -0.061207 -0.134198
v 0.095090 -0.047058 -0.113929
v -0.023492 -0.125251 0.003278
v -0.062416 -0.194080 -0.140506
v -0.045411 -0.183092 -0.158265
v -0.052157 -0.163503 -0.050102
vt 0.686800 0.046400
vt 0.743400 0.011000
vt 0.838100 0.056600
vt 0.191800 0.557000
vt 0.216200 0.492200
vt 0.266800 0.584300
vt 0.583800 0.182100
vt 0.609100 0.063200
vt 0.214885 0.673795
vt 0.216572 0.674300
vt 0.215400 0.676400
vt 0.054938 0.556981
vt 0.112000 0.543400
vt 0.080517 0.588505
vt 0.131000 0.653600
vt 0.139656 0.639847
vt 0.323440 0.696197
vt 0.287719 0.700600
vt 0.294988 0.694730
vt 0.419308 0.668188
vt 0.426600 0.660500
vt 0.423512 0.668316
vt 0.120342 0.654636
vt 0.129897 0.658286
vt 0.124045 0.613264
vt 0.127326 0.632293
vt 0.228079 0.653682
vt 0.276256 0.660071
vt 0.382900 0.543000
vt 0.344800 0.654500
vt 0.512600 0.630400
vt 0.813361 0.115642
vt 0.856004 0.085694
vt 0.013269 0.566786
vt 0.013322 0.566885
vt 0.012000 0.567200
vt 0.102400 0.537700
vt 0.736400 0.112900
vt 0.877331 0.111202
vt 0.877800 0.110200
vt 0.878589 0.111698
vt 0.146588 0.628834
vt 0.755571 0.137221
vt 0.344301 0.664825
vt 0.343665 0.677982
vt 0.314000 0.679375
vt 0.332159 0.664709
vt 0.607181 0.188320
vt 0.600277 0.191931
vt 0.414051 0.673731
vt 0.210387 0.651039
vt 0.222656 0.663398
vt 0.212254 0.660485
vt 0.172954 0.641543
vt 0.801887 0.143025
vt 0.865045 0.100386
vt 0.809976 0.139051
vt 0.714377 0.148024
vt 0.401100 0.687385
vt 0.421843 0.672541
vt 0.417104 0.684534
vt 0.432027 0.668813
vt 0.433360 0.670855
vt 0.278380 0.677092
vt 0.280307 0.692537
vt 0.443294 0.667760
vt 0.524024 0.650365
vt 0.499507 0.650249
vt 0.859410 0.085371
vt 0.053876 0.553535
vt 0.030027 0.562910
vt 0.069180 0.604747
vt 0.103806 0.621150
vt 0.126516 0.627591
vt 0.143321 0.634025
vt 0.800875 0.145441
vt 0.770951 0.156732
vt 0.764769 0.148890
vt 0.870530 0.109299
vt 0.510046 0.668365
vt 0.488590 0.666799
vt 0.490889 0.663314
vt 0.870148 0.099869
vt 0.029424 0.561514
vt 0.065344 0.610242
vt 0.697150 0.175501
vt 0.796274 0.156420
vt 0.871804 0.111369
vt 0.877243 0.109448
vt 0.056806 0.622474
vt 0.535382 0.670213
vt 0.342900 0.693798
vt 0.741751 0.168198
vt 0.696379 0.176730
vt 0.688663 0.178998
vt 0.633304 0.195269
vt 0.616658 0.201706
vt 0.440213 0.681354
vt 0.775053 0.161936
vt 0.267005 0.698827
vt 0.217007 0.689383
vt 0.211584 0.687949
vt 0.133783 0.659464
vt 0.281330 0.700737
vt 0.012492 0.570148
vn -0.4634 -0.8769 0.1273
vn 0.4648 -0.8115 0.3541
vn -0.3721 -0.7962 0.4772
vn 0.8794 0.0245 0.4755
vn 0.9992 -0.0292 -0.0268
vn -0.3683 -0.7456 -0.5554
vn 0.6261 -0.6968 -0.3500
vn 0.9289 0.1611 0.3335
vn 0.9911 0.0841 0.1035
vn 0.9410 0.1976 0.2749
vn 0.1036 -0.1531 0.9828
vn 0.3620 -0.3111 0.8787
vn 0.3478 0.1874 0.9187
vn 0.6509 0.2852 0.7035
vn 0.7759 0.1945 0.6001
vn 0.8936 -0.0185 -0.4484
vn 0.9424 -0.0812 -0.3244
vn 0.9260 -0.0572 -0.3732
vn 0.6180 -0.0732 -0.7828
vn 0.3945 -0.1987 -0.8972
vn 0.2046 -0.0623 -0.9769
vn 0.4428 0.2616 0.8576
vn 0.5273 0.3942 0.7528
vn 0.5816 0.1941 0.7900
vn 0.9920 -0.0002 -0.1263
vn 0.8813 -0.0525 -0.4696
vn -0.5563 -0.7912 -0.2540
vn -0.5422 -0.8092 -0.2262
vn -0.3817 -0.8002 0.4625
vn -0.4813 -0.4593 0.7466
vn -0.6804 -0.7020 0.2105
vn -0.7949 -0.5322 0.2914
vn 0.0763 0.1795 0.9808
vn -0.4383 -0.8653 0.2432
vn 0.8424 -0.0699 -0.5342
vn -0.4552 -0.8790 0.1420
vn -0.8080 -0.3436 -0.4786
vn 0.8351 0.2424 0.4938
vn -0.5407 -0.7985 -0.2647
vn -0.1071 -0.8247 0.5554
vn 0.7214 -0.1024 -0.6849
vn 0.2847 -0.0479 -0.9574
vn -0.0258 -0.1073 -0.9939
vn -0.0301 -0.1151 -0.9929
vn -0.4037 -0.0703 -0.9122
vn 0.4444 0.2398 0.8632
vn -0.7175 -0.0151 -0.6964
vn -0.2487 -0.0911 -0.9643
vn -0.5638 -0.7876 -0.2488
vn -0.5424 -0.8114 -0.2176
vn 0.3571 0.1924 0.9140
vn -0.8065 -0.4691 -0.3598
vn 0.8479 -0.0649 -0.5262
vn -0.1905 -0.7211 0.6662
vn -0.0571 -0.8736 0.4833
vn -0.0205 -0.9035 0.4280
vn -0.1585 -0.9230 0.3505
vn -0.0268 -0.1091 -0.9937
vn -0.4783 -0.8670 0.1399
vn 0.9937 0.1012 0.0476
vn 0.9573 0.2284 0.1771
vn 0.8537 0.2918 0.4313
vn 0.7763 0.3184 0.5441
vn 0.9892 -0.0113 -0.1463
usemtl None.006
s 1
f 70/82/68 71/83/69 72/84/70
f 73/85/71 71/86/69 74/87/72
f 70/82/68 76/88/73 77/89/74
f 108/90/75 111/91/76 78/92/77
f 92/93/78 80/94/79 84/95/80
f 108/90/75 78/92/77 83/96/81 113/97/82
f 159/98/83 147/99/84 110/100/85
f 123/101/86 82/102/87 121/103/88
f 150/104/89 83/96/81 139/105/90
f 84/95/80 80/94/79 100/106/91
f 112/107/91 113/97/82 83/96/81
f 126/108/76 74/87/72 120/109/92
f 77/110/74 82/102/87 81/111/93
f 77/110/74 76/112/73 82/102/87
f 103/113/94 72/84/70 91/114/95
f 74/87/72 77/110/74 81/111/93
f 74/87/72 71/86/69 77/110/74
f 71/83/69 70/82/68 77/89/74
f 117/115/96 135/116/78 79/117/97
f 72/118/70 71/86/69 80/94/79
f 71/86/69 73/85/71 80/94/79
f 70/82/68 75/119/98 76/88/73
f 70/82/68 72/84/70 75/119/98
f 144/120/99 79/121/97 149/122/100
f 80/94/79 73/85/71 102/123/82 100/106/91
f 72/84/70 103/113/94 97/124/101 75/119/98
f 124/125/102 96/126/102 98/127/85 125/128/85
f 76/88/73 101/129/103 95/130/104
f 124/125/102 123/101/86 94/131/86 96/126/102
f 122/132/75 126/108/76 99/133/76 93/134/75
f 122/132/75 93/134/75 127/135/105
f 134/136/94 103/113/94 91/114/95 107/137/95 136/138/106
f 75/119/98 97/124/101 89/139/107
f 75/119/98 89/139/107 101/129/103 76/88/73
f 157/140/108 94/131/86 88/141/88 155/142/109
f 118/143/110 90/144/110 88/141/88 121/103/88
f 111/91/76 99/133/76 87/145/92 106/146/92
f 120/109/92 125/128/85 98/127/85 87/145/92
f 118/143/110 128/147/111 90/144/110
f 76/112/73 95/148/104 86/149/112
f 72/84/70 85/150/96 91/114/95
f 72/118/70 80/94/79 92/93/78 85/151/96
f 115/152/78 92/93/78 84/95/80 104/153/80
f 137/154/113 132/155/91 112/107/91
f 132/155/91 133/156/82 113/97/82 112/107/91
f 134/136/94 114/157/94 109/158/101 131/159/101
f 93/134/75 99/133/76 111/91/76 108/90/75
f 127/135/105 133/156/82 102/123/82
f 119/160/95 136/138/106 107/137/95
f 87/145/92 98/127/85 110/100/85 106/146/92
f 162/161/114 154/162/115 129/163/112
f 85/150/96 105/164/96 107/137/95 91/114/95
f 85/151/96 92/93/78 115/152/78 105/165/96
f 135/116/78 115/152/78 104/153/80 116/166/80
f 116/166/80 104/153/80 137/154/113
f 114/157/94 134/136/94 136/138/106
f 104/153/80 84/95/80 100/106/91 132/155/91 137/154/113
f 100/106/91 102/123/82 133/156/82 132/155/91
f 103/113/94 134/136/94 131/159/101 97/124/101
f 97/124/101 131/159/101 130/167/107 89/139/107
f 86/149/112 129/163/112 128/147/111
f 93/134/75 108/90/75 113/97/82 133/156/82 127/135/105
f 81/111/93 124/125/102 125/128/85
f 81/111/93 82/102/87 123/101/86 124/125/102
f 73/85/71 74/87/72 126/108/76 122/132/75
f 73/85/71 122/132/75 127/135/105 102/123/82
f 94/131/86 123/101/86 121/103/88 88/141/88
f 99/133/76 126/108/76 120/109/92 87/145/92
f 74/87/72 81/111/93 125/128/85 120/109/92
f 151/168/116 114/157/94 136/138/106 119/160/95 141/169/117
f 82/102/87 118/143/110 121/103/88
f 76/112/73 86/149/112 128/147/111 118/143/110 82/102/87
f 105/164/96 117/170/96 119/160/95 107/137/95
f 105/165/96 115/152/78 135/116/78 117/115/96
f 138/171/118 116/166/80 137/154/113 112/107/91 83/96/81 150/104/89
f 95/148/104 161/172/119 162/161/114 129/163/112 86/149/112
f 96/126/102 158/173/120 159/98/83 110/100/85 98/127/85
f 96/126/102 94/131/86 157/140/108 158/173/120
f 131/159/101 109/158/101 160/174/121 156/175/122 130/167/107
f 130/167/107 156/175/122 163/176/123
f 101/129/103 153/177/124 161/178/119 95/130/104
f 89/139/107 130/167/107 163/176/123 153/177/124 101/129/103
f 90/144/110 152/179/125 155/142/109 88/141/88
f 129/163/112 154/162/115 152/179/125 90/144/110 128/147/111
f 109/158/101 146/180/126 160/174/121
f 114/157/94 151/168/116 146/180/126 109/158/101
f 78/92/77 143/181/127 148/182/128
f 83/96/81 78/92/77 142/183/129 145/184/130
f 78/92/77 148/182/128 142/183/129
f 117/170/96 79/121/97 144/120/99 141/169/117 119/160/95
f 106/146/92 110/100/85 147/99/84 140/185/131
f 78/92/77 111/91/76 106/146/92 140/185/131 143/181/127
f 83/96/81 145/184/130 139/105/90
f 79/117/97 135/116/78 116/166/80 138/171/118 149/186/100
