# Blender v2.79 (sub 0) OBJ File: ''
# www.blender.org
mtllib RightLung.mtl
o LungRightLow_Icosphere.002
v 0.179490 0.319936 -0.178584
v 0.108661 0.516101 0.009209
v 0.029160 0.408789 0.004892
v 0.214996 0.431161 0.087095
v 0.194200 0.559398 -0.023090
v 0.200382 0.459743 0.084987
v 0.188149 0.454651 -0.160306
v 0.174232 0.589386 -0.098057
v 0.199491 0.531515 -0.043471
v 0.067383 0.424209 -0.193660
v 0.089472 0.539221 -0.149436
v 0.142024 0.470961 -0.180456
v 0.003162 0.402409 -0.052084
v 0.047813 0.518119 -0.069090
v 0.025796 0.444400 -0.139775
v 0.148478 0.603738 -0.056230
v 0.197401 0.310775 -0.151362
v 0.227916 0.385172 0.098794
v 0.196045 0.387479 0.107739
v 0.176692 0.363766 0.071921
v 0.207643 0.361893 0.108842
v 0.024920 0.396682 0.004688
v 0.042571 0.395448 0.024947
v 0.001686 0.392917 -0.047820
v 0.179576 0.311002 -0.176818
v 0.041784 0.350748 -0.190569
v 0.000953 0.391379 -0.056285
v 0.005997 0.376406 -0.120604
v 0.092607 0.330611 -0.211765
v 0.081927 0.333951 -0.211586
v 0.167559 0.375232 0.113361
v 0.089616 0.390240 0.069738
v 0.185639 0.369756 0.113914
v 0.175969 0.311442 -0.180058
v 0.118078 0.384933 0.086499
v 0.026259 0.359860 -0.169902
v 0.029916 0.396860 0.012949
v 0.105169 0.371710 0.003947
v 0.150733 0.317152 -0.190103
vt 0.129612 0.252129
vt 0.128300 0.259700
vt 0.125299 0.252297
vt 0.147575 0.250139
vt 0.360932 0.360402
vt 0.274700 0.371200
vt 0.319200 0.317600
vt 0.335419 0.327283
vt 0.319400 0.453700
vt 0.227200 0.397300
vt 0.306100 0.431900
vt 0.177300 0.326000
vt 0.217300 0.360400
vt 0.199800 0.413000
vt 0.219200 0.283900
vt 0.227200 0.328900
vt 0.197400 0.314800
vt 0.296100 0.291500
vt 0.258500 0.332800
vt 0.248400 0.292900
vt 0.232400 0.364100
vt 0.296418 0.284367
vt 0.270568 0.260126
vt 0.238554 0.248591
vt 0.227475 0.244406
vt 0.196906 0.239790
vt 0.191965 0.239151
vt 0.100200 0.266600
vt 0.737282 0.824097
vt 0.780500 0.978100
vt 0.660900 0.890300
vt 0.682010 0.851778
vt 0.668100 0.918900
vt 0.370000 0.447200
vt 0.393801 0.421185
vt 0.362463 0.379078
vt 0.330068 0.315967
vt 0.323716 0.310462
vt 0.301623 0.287642
vt 0.641100 0.894600
vt 0.647938 0.872149
vt 0.902000 0.811600
vt 0.390039 0.441322
vt 0.634361 0.880410
vn 0.1942 -0.7869 -0.5857
vn 0.6332 -0.0013 -0.7740
vn 0.3931 -0.8344 -0.3864
vn 0.0674 -0.7592 -0.6474
vn -0.5870 -0.3437 0.7330
vn -0.4330 0.5960 0.6763
vn -0.7600 0.3869 0.5222
vn -0.6588 -0.3826 0.6478
vn 0.7509 0.3370 0.5680
vn 0.6679 0.6224 0.4080
vn 0.2792 0.5594 0.7804
vn 0.7855 0.1791 -0.5924
vn 0.5030 0.7501 -0.4293
vn 0.9941 0.0583 -0.0916
vn -0.3761 0.2766 -0.8843
vn -0.3852 0.6637 -0.6412
vn 0.2453 0.3185 -0.9156
vn -0.9443 0.3046 0.1244
vn -0.7982 0.5870 0.1354
vn -0.8549 0.3364 -0.3950
vn -0.0712 0.9713 0.2268
vn -0.8797 -0.4689 0.0794
vn -0.8767 -0.4761 -0.0689
vn -0.8042 -0.5108 -0.3039
vn -0.6771 -0.5431 -0.4965
vn -0.3374 -0.6127 -0.7147
vn -0.0689 -0.6795 -0.7304
vn 0.6669 -0.7451 0.0007
vn 0.4325 -0.8993 0.0657
vn 0.9243 -0.2437 0.2938
vn 0.5565 -0.5508 -0.6220
vn 0.1916 0.2559 0.9475
vn -0.3351 -0.3692 0.8668
vn -0.5138 -0.3753 0.7715
vn -0.7111 -0.3624 0.6026
vn -0.7978 -0.4240 0.4286
vn -0.8580 -0.4198 0.2959
vn 0.4733 -0.7245 0.5011
vn -0.0888 -0.4832 0.8710
usemtl None.009
s 1
f 34/1/1 1/2/2 25/3/3
f 34/1/1 39/4/4 1/2/2
f 32/5/5 2/6/6 3/7/7 23/8/8
f 4/9/9 5/10/10 6/11/11
f 7/12/12 8/13/13 9/14/14
f 10/15/15 11/16/16 12/17/17
f 13/18/18 14/19/19 15/20/20
f 14/19/19 16/21/21 11/16/16
f 14/19/19 11/16/16 15/20/20
f 15/20/20 11/16/16 10/15/15
f 11/16/16 16/21/21 8/13/13
f 11/16/16 8/13/13 12/17/17
f 12/17/17 8/13/13 7/12/12
f 8/13/13 16/21/21 5/10/10
f 8/13/13 5/10/10 9/14/14
f 9/14/14 5/10/10 4/9/9
f 5/10/10 16/21/21 2/6/6
f 5/10/10 2/6/6 6/11/11
f 2/6/6 16/21/21 14/19/19
f 2/6/6 14/19/19 3/7/7
f 3/7/7 14/19/19 13/18/18
f 27/22/22 13/18/18 15/20/20 28/23/23
f 28/23/23 15/20/20 36/24/24
f 36/24/24 15/20/20 10/15/15 26/25/25
f 30/26/26 10/15/15 12/17/17 29/27/27
f 29/27/27 12/17/17 1/2/2 39/4/4
f 1/2/2 12/17/17 7/12/12
f 17/28/28 7/12/12 9/14/14
f 38/29/29 9/30/14 18/31/30 20/32/31
f 18/31/30 9/30/14 4/33/9
f 19/34/32 4/9/9 6/11/11
f 31/35/33 6/11/11 35/36/34
f 37/37/35 23/8/8 3/7/7
f 22/38/36 3/7/7 13/18/18 24/39/37
f 26/25/25 10/15/15 30/26/26
f 1/2/2 7/12/12 17/28/28
f 18/31/30 4/33/9 19/40/32
f 21/41/38 20/32/31 18/31/30
f 24/39/37 13/18/18 27/22/22
f 17/42/28 9/30/14 38/29/29
f 37/37/35 3/7/7 22/38/36
f 6/11/11 2/6/6 32/5/5 35/36/34
f 19/34/32 6/11/11 31/35/33 33/43/39
f 18/31/30 19/40/32 33/44/39 21/41/38
f 1/2/2 17/28/28 25/3/3
f 39/4/4 34/1/1 25/3/3 17/42/28 38/29/29 21/41/38 33/43/39 31/35/33 35/36/34 32/5/5 23/8/8 37/37/35 22/38/36 24/39/37 27/22/22 28/23/23 36/24/24 26/25/25 30/26/26 29/27/27
o LungRightLow_Icosphere.001
v -0.076092 0.061862 -0.009382
v -0.018923 0.039090 0.163780
v -0.104367 -0.026464 0.074659
v -0.103138 0.044895 0.091837
v -0.117551 0.054158 -0.001406
v -0.096584 -0.030156 -0.099297
v 0.034338 -0.027725 -0.173327
v -0.104136 0.182960 0.022367
v 0.046899 0.080928 0.179741
v 0.007917 0.114710 0.167363
v -0.031350 0.040749 0.165232
v -0.075049 0.176544 0.074709
v -0.100881 0.192254 0.022524
v -0.039793 0.106124 -0.176775
v -0.022190 0.088848 -0.184505
v -0.028102 0.051102 -0.180860
v -0.048633 0.159750 0.123278
v -0.086312 0.095500 -0.115483
v -0.049158 0.125296 -0.065391
v 0.001841 0.067271 -0.181827
v -0.106690 0.187872 -0.041361
v -0.108483 0.184733 -0.072853
v 0.081466 0.006482 -0.102432
v -0.024107 0.108614 -0.065821
v -0.013113 0.112366 0.025163
v 0.047422 0.079128 0.171031
v -0.075717 0.144775 -0.138635
v -0.053515 0.163354 0.117603
v 0.034140 0.038165 -0.178921
v -0.102563 0.193079 0.017821
v 0.072134 0.009386 -0.139543
v -0.044248 0.127693 -0.061509
v 0.047937 0.079897 0.179203
v -0.105982 0.181385 -0.079836
vt 0.000000 0.000000
vt 0.000000 0.000000
vt 0.000000 0.000000
vt 0.000000 0.000000
vt 0.000000 0.000000
vt 0.000000 0.000000
vt 0.000000 0.000000
vt 0.000000 0.000000
vt 0.000000 0.000000
vt 0.000000 0.000000
vt 0.000000 0.000000
vt 0.000000 0.000000
vt 0.000000 0.000000
vt 0.000000 0.000000
vt 0.000000 0.000000
vt 0.000000 0.000000
vt 0.297309 0.209983
vt 0.258137 0.174654
vt 0.303393 0.213690
vt 0.717100 0.581500
vt 0.577800 0.625300
vt 0.631100 0.532000
vt 0.485900 0.161600
vt 0.393100 0.128100
vt 0.511400 0.075900
vt 0.763300 0.489000
vt 0.877700 0.520000
vt 0.367100 0.241900
vt 0.612370 0.347455
vt 0.542552 0.330430
vt 0.592200 0.228400
vt 0.410252 0.272414
vt 0.363633 0.247380
vt 0.211378 0.143864
vt 0.198107 0.132107
vt 0.200200 0.102900
vt 0.459622 0.292315
vt 0.308000 0.009200
vt 0.277700 0.139500
vt 0.132700 0.025700
vt 0.572900 0.617700
vt 0.763400 0.625600
vt 0.175803 0.119245
vt 0.323255 0.226098
vt 0.896551 0.601665
vt 0.786624 0.628162
vt 0.703310 0.653904
vt 0.575034 0.675629
vt 0.449382 0.290025
vt 0.142610 0.090850
vt 0.361212 0.246013
vt 0.088192 0.073621
vt 0.051237 0.072356
vt 0.762674 0.630783
vt 0.569745 0.676851
vt 0.568718 0.676408
vn 0.8309 0.5204 -0.1971
vn -0.6707 -0.7334 0.1114
vn 0.8440 -0.4947 -0.2073
vn 0.3840 -0.8242 0.4163
vn -0.2907 -0.9370 0.1937
vn -0.8794 0.0245 0.4754
vn -0.9992 -0.0292 -0.0268
vn 0.7466 -0.2252 0.6260
vn -0.1606 -0.9868 0.0181
vn 0.2802 -0.8402 -0.4642
vn -0.9410 0.1976 0.2749
vn -0.0618 -0.2302 0.9712
vn -0.3718 0.1711 0.9124
vn -0.3640 -0.3163 0.8760
vn -0.8346 0.2444 0.4937
vn -0.8550 0.2922 0.4285
vn -0.7201 -0.1020 -0.6864
vn -0.2860 -0.0476 -0.9571
vn -0.4070 -0.1660 -0.8982
vn -0.6562 0.1644 0.7365
vn -0.8044 -0.0633 -0.5908
vn -0.9606 -0.0349 -0.2757
vn -0.9187 -0.3081 -0.2472
vn 0.2380 -0.4003 0.8849
vn 0.6654 -0.6655 -0.3381
vn 0.0166 -0.0904 -0.9958
vn -0.9939 0.0992 0.0475
vn -0.9878 -0.0163 -0.1551
vn -0.1609 -0.8428 0.5136
vn -0.4270 -0.6572 0.6211
vn 0.6017 -0.7163 -0.3534
vn 0.5227 -0.8415 -0.1365
vn -0.8464 -0.0663 -0.5285
vn -0.7746 0.1935 0.6021
vn 0.2376 -0.0815 -0.9679
vn -0.9595 0.2252 0.1694
vn 0.7986 -0.4280 -0.4232
vn -0.3452 -0.5382 0.7689
vn 0.6184 -0.7052 -0.3468
vn 0.3171 -0.7426 0.5900
vn -0.8936 -0.0185 -0.4484
vn -0.9508 -0.0953 -0.2949
vn 0.6708 0.7333 -0.1113
usemtl None.009
s off
f 40/45/40 45/46/40 57/47/40 73/48/40 61/49/40 60/50/40 69/51/40 52/52/40 51/53/40 67/54/40 56/55/40 49/56/40 48/57/40 72/58/40 71/59/40 58/60/40
f 73/61/41 66/62/41 61/63/41
s 1
f 40/64/42 41/65/43 42/66/44
f 43/67/45 44/68/46 42/69/44
f 40/64/47 45/70/48 46/71/49
f 43/67/45 47/72/50 44/68/46
f 48/73/51 49/74/52 50/75/53
f 51/76/54 52/77/55 47/72/50
f 53/78/56 54/79/57 55/80/58
f 49/74/52 56/81/59 50/75/53
f 45/82/48 57/83/60 55/80/58
f 45/82/48 55/80/58 46/84/49
f 44/68/46 57/83/61 45/82/62
f 44/68/46 45/82/62 42/69/44
f 42/66/44 45/70/62 40/64/42
f 41/65/43 50/85/53 42/66/44
f 42/69/44 50/75/53 43/67/45
f 40/64/47 46/71/49 58/86/63
f 40/64/42 58/86/64 41/65/43
f 55/80/58 54/79/57 59/87/65
f 47/72/50 60/88/66 61/63/67 44/68/46
f 58/86/63 46/71/49 62/89/68 63/90/69
f 41/65/43 64/91/70 65/92/71
f 57/83/60 66/62/72 53/78/56 55/80/58
f 43/67/45 67/93/73 51/76/54 47/72/50
f 50/75/53 56/81/59 67/93/73 43/67/45
f 46/84/49 55/80/58 59/87/65 68/94/74
f 47/72/50 52/77/55 69/95/75
f 47/72/50 69/95/75 60/88/66
f 46/84/49 68/94/74 70/96/76
f 46/84/49 70/96/76 62/97/68
f 58/86/63 63/90/69 71/98/77
f 41/65/43 58/86/64 71/98/78 64/91/70
f 41/65/43 65/92/71 72/99/79
f 41/65/43 72/99/79 48/100/51 50/85/53
f 57/83/60 73/61/80 66/62/72
f 44/68/46 61/63/67 73/61/81 57/83/61
f 62/97/82 70/96/82 68/94/82 59/87/82 54/79/82 53/78/82 66/62/82 71/98/82 63/90/82
f 66/62/82 61/63/82 71/98/82
o LungRightLow_Icosphere.000
v 0.040789 0.161909 -0.067962
v 0.169234 0.076378 -0.070166
v 0.054300 0.197415 -0.037049
v 0.020648 0.180988 -0.063650
v 0.146361 0.059776 -0.104574
v 0.098897 0.137931 -0.185008
v 0.157913 0.083186 -0.123017
v -0.010821 0.198069 -0.140777
v 0.003118 0.262892 -0.171235
v 0.025103 0.159418 -0.178916
v 0.011381 0.216649 0.115462
v 0.014617 0.224374 0.117142
v -0.010153 0.229838 0.072568
v 0.102512 0.223945 0.166833
v 0.168304 0.166210 0.175009
v 0.187758 0.198661 0.081333
v 0.052097 0.277356 0.036343
v 0.062219 0.266717 -0.198679
v -0.041086 0.234679 -0.081977
v -0.043184 0.243839 -0.078175
v 0.060715 0.309957 0.104617
v 0.173971 0.266642 -0.133868
v -0.035985 0.245549 0.020382
v -0.037667 0.246374 0.015680
v 0.042706 0.142142 -0.186647
v 0.066737 0.120566 -0.183969
v 0.187629 0.148560 -0.060376
v 0.016263 0.213045 0.121136
v -0.041794 0.241167 -0.043503
v -0.043587 0.238027 -0.074995
v 0.099036 0.091460 -0.181062
v 0.137029 0.062681 -0.141684
v 0.112318 0.132423 0.168890
v 0.128979 0.143046 0.180786
v 0.112833 0.133192 0.177061
v 0.111795 0.134223 0.177600
v 0.200223 0.203023 -0.052751
v 0.051782 0.165661 0.023021
v 0.072813 0.168005 0.165221
v 0.153262 0.319633 0.089415
v 0.184213 0.317760 0.126337
v 0.001490 0.352549 0.022182
v 0.019140 0.351315 0.042442
v -0.021744 0.348784 -0.030326
v 0.156146 0.266869 -0.159324
v 0.018354 0.306615 -0.173075
v -0.022477 0.347246 -0.038791
v -0.017433 0.332273 -0.103110
v 0.069177 0.286478 -0.194271
v 0.058497 0.289818 -0.194091
v 0.144129 0.331099 0.130856
v 0.066185 0.346107 0.087232
v 0.162209 0.325623 0.131408
v 0.152538 0.267309 -0.162563
v 0.094648 0.340800 0.103993
v 0.002829 0.315727 -0.152407
v 0.006486 0.352727 0.030444
v 0.081739 0.327577 0.021441
v 0.127303 0.273019 -0.172609
vt 0.000000 0.000000
vt 0.000000 0.000000
vt 0.000000 0.000000
vt 0.000000 0.000000
vt 0.000000 0.000000
vt 0.000000 0.000000
vt 0.000000 0.000000
vt 0.000000 0.000000
vt 0.000000 0.000000
vt 0.000000 0.000000
vt 0.000000 0.000000
vt 0.000000 0.000000
vt 0.000000 0.000000
vt 0.000000 0.000000
vt 0.000000 0.000000
vt 0.000000 0.000000
vt 0.000000 0.000000
vt 0.000000 0.000000
vt 0.000000 0.000000
vt 0.000000 0.000000
vt 0.000000 0.000000
vt 0.786624 0.628162
vt 0.905700 0.641300
vt 0.757700 0.666300
vt 0.762674 0.630783
vt 0.896551 0.601665
vt 0.258137 0.174654
vt 0.232400 0.220900
vt 0.211378 0.143864
vt 0.449382 0.290025
vt 0.447000 0.298400
vt 0.410252 0.272414
vt 0.595700 0.799000
vt 0.572700 0.718100
vt 0.637900 0.730400
vt 0.723700 0.775700
vt 0.297309 0.209983
vt 0.299400 0.217500
vt 0.362463 0.379078
vt 0.360932 0.360402
vt 0.385700 0.357300
vt 0.390039 0.441322
vt 0.393801 0.421185
vt 0.505000 0.407600
vt 0.198107 0.132107
vt 0.191200 0.228500
vt 0.149600 0.136800
vt 0.175803 0.119245
vt 0.100200 0.266600
vt 0.063600 0.100100
vt 0.125299 0.252297
vt 0.007100 0.169200
vt 0.459622 0.292315
vt 0.323255 0.226098
vt 0.303393 0.213690
vt 0.142610 0.090850
vt 0.088192 0.073621
vt 0.011700 0.095000
vt 0.051237 0.072356
vt 0.889500 0.687000
vt 0.575034 0.675629
vt 0.567800 0.689300
vt 0.569745 0.676851
vt 0.568718 0.676408
vt 0.881400 0.724900
vt 0.902000 0.811600
vt 0.703310 0.653904
vt 0.007100 0.223600
vt 0.620700 0.435800
vt 0.616800 0.373600
vt 0.647938 0.872149
vt 0.634361 0.880410
vt 0.542552 0.330430
vt 0.612370 0.347455
vt 0.147575 0.250139
vt 0.129612 0.252129
vt 0.196906 0.239790
vt 0.191965 0.239151
vt 0.270568 0.260126
vt 0.238554 0.248591
vt 0.296418 0.284367
vt 0.227475 0.244406
vt 0.361212 0.246013
vt 0.301623 0.287642
vt 0.335419 0.327283
vt 0.330068 0.315967
vt 0.363633 0.247380
vt 0.323716 0.310462
vt 0.737282 0.824097
vt 0.682010 0.851778
vn 0.2938 0.9320 -0.2121
vn -0.3538 -0.5508 0.7559
vn 0.5140 -0.6768 0.5269
vn 0.4198 -0.8275 0.3727
vn -0.0023 -0.8495 0.5275
vn 0.4812 -0.8709 0.1003
vn -0.8388 -0.0731 -0.5395
vn -0.7057 0.0566 -0.7062
vn -0.5123 -0.0452 -0.8576
vn -0.7771 0.1954 0.5983
vn -0.6606 0.2855 0.6944
vn -0.8247 0.2783 0.4924
vn 0.0857 0.4740 0.8763
vn 0.8439 -0.1652 0.5104
vn 0.9627 -0.0157 -0.2700
vn 0.9948 -0.0690 -0.0745
vn -0.9088 -0.0356 -0.4158
vn -0.9740 0.0849 -0.2101
vn -0.3753 0.4295 0.8214
vn -0.5172 0.4332 0.7381
vn -0.4878 0.4188 0.7660
vn 0.1862 0.2239 0.9566
vn -0.1528 0.3674 0.9174
vn -0.1232 -0.0763 -0.9894
vn -0.1516 0.0219 -0.9882
vn 0.3572 -0.0956 -0.9291
vn 0.0184 -0.0936 -0.9954
vn 0.9669 0.1422 -0.2117
vn 0.8409 -0.3000 -0.4504
vn 0.7281 -0.1262 -0.6738
vn 0.8288 -0.2354 0.5076
vn -0.5369 0.2101 0.8171
vn -0.9837 0.1721 0.0527
vn -0.9946 0.0130 -0.1030
vn 0.5344 -0.0699 -0.8424
vn 0.7644 -0.2304 -0.6021
vn 0.5220 -0.8274 -0.2072
vn 0.2827 -0.5212 0.8052
vn 0.3427 -0.7667 0.5428
vn -0.1210 -0.1203 0.9853
vn 0.8882 0.0459 0.4572
vn 0.5250 -0.7613 -0.3804
vn 0.7806 -0.5600 0.2776
vn -0.3429 0.1554 0.9264
vn 0.3712 0.0072 -0.9285
vn 0.5432 -0.0802 -0.8358
vn 0.2695 0.1183 -0.9557
vn 0.0467 0.2018 -0.9783
vn 0.2185 0.1385 -0.9660
vn 0.3641 0.0788 -0.9280
vn -0.9393 0.1936 -0.2833
vn -0.8536 0.1707 -0.4921
vn -0.9800 0.1988 -0.0066
vn -0.5954 0.1745 -0.7842
vn -0.4245 0.1101 -0.8987
vn -0.9323 0.2585 0.2528
vn -0.9540 0.2331 0.1887
vn -0.5990 0.4215 0.6809
vn -0.7570 0.3321 0.5627
vn -0.8528 0.2914 0.4333
vn -0.8502 0.2904 0.4392
vn 0.8557 -0.5161 -0.0371
vn 0.5465 -0.6588 -0.5170
vn -0.6708 -0.7333 0.1113
vn -0.6705 -0.7335 0.1114
usemtl None.009
s off
f 127/101/83 132/102/83 91/103/83 123/104/83 119/105/83 129/106/83 121/107/83 120/108/83 117/109/83 115/110/83 130/111/83 116/112/83 125/113/83 128/114/83 124/115/83 126/116/83 114/117/83 113/118/83 131/119/83 95/120/83 118/121/83
s 1
f 74/122/84 75/123/85 76/124/86 77/125/87
f 74/122/84 78/126/88 75/123/85
f 81/127/89 82/128/90 83/129/91
f 84/130/92 85/131/93 86/132/94
f 87/133/95 88/134/96 89/135/97 90/136/98
f 92/137/99 93/138/100 82/128/90 81/127/89
f 128/139/101 125/140/102 94/141/103
f 126/142/104 124/143/105 87/144/95
f 98/145/106 91/146/107 79/147/108 99/148/109
f 95/149/110 80/150/111 118/151/112
f 80/150/111 95/149/110 100/152/113
f 87/144/95 94/141/103 85/131/93
f 101/153/114 85/131/93 84/130/92
f 102/154/115 93/138/100 103/155/116
f 103/155/116 93/138/100 92/137/99
f 104/156/117 99/148/109 79/147/108
f 104/156/117 79/147/108 80/150/111 105/157/118
f 105/157/118 80/150/111 75/158/85 78/159/88
f 75/158/85 80/150/111 100/152/113
f 76/124/86 75/123/85 100/160/113
f 76/124/86 89/135/97 88/134/96
f 106/161/119 88/134/96 107/162/120 108/163/121
f 108/163/121 107/162/120 109/164/122
f 110/165/123 95/166/110 90/136/98
f 76/124/86 100/160/113 110/165/123
f 111/167/124 77/125/87 76/124/86
f 100/152/113 95/149/110 110/168/123
f 88/169/96 87/144/95 107/170/120
f 114/171/125 126/172/104 87/133/95
f 111/167/124 76/124/86 88/134/96 106/161/119
f 76/124/86 110/165/123 90/136/98
f 89/135/97 76/124/86 90/136/98
f 82/128/90 91/146/107 98/145/106 83/129/91
f 107/170/120 87/144/95 112/173/126 109/174/122
f 87/144/95 85/131/93 101/153/114 112/173/126
f 79/147/108 91/146/107 132/175/127 127/176/128
f 87/144/95 124/143/105 128/139/101 94/141/103
f 91/146/129 123/177/130 122/178/131
f 91/146/129 122/178/131 132/175/132
f 93/138/100 121/179/133 129/180/134 82/128/90
f 93/138/100 120/181/135 121/179/133
f 82/128/90 129/180/134 119/182/136
f 82/128/90 119/182/136 123/177/137 91/146/107
f 79/147/108 127/176/128 118/151/112 80/150/111
f 97/183/138 117/184/139 120/181/135 93/138/100 102/154/115
f 94/141/103 125/140/102 116/185/140
f 85/131/93 94/141/103 116/185/140 130/186/141
f 96/187/142 115/188/143 117/184/139 97/183/138
f 85/131/93 130/186/141 115/188/143 96/187/142 86/132/94
f 90/136/98 95/166/110 131/189/144
f 90/136/98 131/189/144 113/190/145
f 87/133/95 90/136/98 113/190/145 114/171/125
f 92/137/146 81/127/146 83/129/146 98/145/146 99/148/146 104/156/146 105/157/146 78/126/146 74/122/146 77/125/146 103/155/147
f 102/154/146 103/155/147 77/125/146 111/167/146 106/161/146 101/153/146 84/130/146 86/132/146 96/187/146 97/183/146
