# Blender v2.79 (sub 0) OBJ File: ''
# www.blender.org
mtllib InferiorLob.mtl
o LungLeftLow_Icosphere.003
v 0.026282 0.132164 -0.077552
v 0.044639 0.132060 0.001657
v -0.040804 0.197614 0.090777
v 0.043410 0.203420 0.018835
v 0.057823 0.212683 -0.074408
v -0.103297 0.141696 -0.243818
v 0.036857 0.128369 -0.172299
v 0.044386 0.338472 -0.049119
v 0.044714 0.338548 -0.051177
v 0.044408 0.341485 -0.050635
v -0.082834 0.227236 0.102327
v -0.028378 0.199274 0.092229
v -0.055922 0.250115 0.092287
v -0.009450 0.329605 0.046281
v -0.001924 0.311640 0.042374
v 0.027129 0.314304 -0.189892
v 0.046337 0.340277 -0.152686
v 0.043822 0.329294 -0.157245
v -0.028787 0.222986 -0.252870
v -0.031626 0.209626 -0.253862
v -0.033248 0.219982 -0.254862
v -0.019013 0.330139 0.051056
v -0.012274 0.334848 0.045514
v -0.016378 0.281900 0.063099
v -0.013110 0.304405 0.055165
v 0.047717 0.309714 -0.056499
v 0.051892 0.298090 -0.121141
v 0.026585 0.254025 -0.188486
v -0.065036 0.234072 0.030283
v -0.084365 0.225147 0.096694
v -0.122646 0.247566 0.109656
v -0.122549 0.247629 0.109691
v -0.123811 0.248277 0.109925
v -0.014706 0.225930 -0.061757
v -0.124867 0.249236 0.108796
v -0.123137 0.250921 0.109389
v 0.004102 0.297254 0.039245
v -0.043183 0.243372 -0.051022
v 0.023979 0.266145 -0.194181
v 0.020658 0.281589 -0.201437
v 0.037243 0.300565 -0.169169
v 0.030959 0.273126 -0.180558
v -0.119129 0.153951 -0.218706
v -0.116877 0.154527 -0.230104
v -0.026740 0.232621 -0.252155
v 0.044196 0.312160 -0.035879
v 0.046302 0.323301 -0.053991
v 0.044275 0.323082 -0.041375
v 0.020232 0.307625 0.006874
v -0.076274 0.250981 0.002227
v -0.106364 0.239052 0.099682
v -0.081393 0.250569 0.013925
v -0.071431 0.212801 -0.092190
v -0.021699 0.256350 -0.250393
v -0.034125 0.225581 -0.255403
v -0.036614 0.241473 -0.256938
v -0.041870 0.215157 -0.254193
v -0.044386 0.216516 -0.254274
v 0.050559 0.317275 -0.131638
v 0.049350 0.334684 -0.141165
v -0.052879 0.209037 -0.253150
v -0.100938 0.166714 -0.246789
v -0.085360 0.224808 0.101055
v -0.106608 0.239443 0.106735
v -0.065840 0.268422 0.092308
v -0.034439 0.289850 0.070189
v -0.013917 0.298845 0.057125
v 0.001262 0.304035 0.040719
v -0.077266 0.252472 -0.000249
v -0.066030 0.257365 -0.042409
v -0.056847 0.251740 -0.045871
v -0.119710 0.247487 0.101495
v -0.113372 0.178270 -0.234228
v -0.098971 0.187576 -0.249267
v -0.099385 0.183182 -0.248745
v -0.107812 0.238512 0.106234
v -0.069195 0.274616 0.092315
v -0.115805 0.202530 -0.115997
v -0.081772 0.259252 -0.011498
v -0.122809 0.249445 0.101916
v -0.076665 0.288403 0.092331
v -0.130377 0.167282 -0.216469
v 0.016665 0.300155 -0.210161
v -0.091453 0.236111 -0.072685
v -0.117790 0.202071 -0.117062
v -0.120118 0.197859 -0.126065
v -0.136817 0.167643 -0.190650
v -0.057323 0.223502 -0.254692
v -0.072123 0.261096 -0.040112
v 0.047468 0.347371 -0.126996
v 0.041756 0.358538 -0.058296
v 0.038726 0.357709 -0.050362
v -0.008994 0.336808 0.041416
v 0.048708 0.343926 -0.146221
vt 0.000000 0.000000
vt 0.000000 0.000000
vt 0.000000 0.000000
vt 0.000000 0.000000
vt 0.000000 0.000000
vt 0.000000 0.000000
vt 0.000000 0.000000
vt 0.000000 0.000000
vt 0.000000 0.000000
vt 0.000000 0.000000
vt 0.000000 0.000000
vt 0.000000 0.000000
vt 0.000000 0.000000
vt 0.000000 0.000000
vt 0.000000 0.000000
vt 0.000000 0.000000
vt 0.000000 0.000000
vt 0.000000 0.000000
vt 0.000000 0.000000
vt 0.000000 0.000000
vt 0.000000 0.000000
vt 0.000000 0.000000
vt 0.000000 0.000000
vt 0.000000 0.000000
vt 0.000000 0.000000
vt 0.000000 0.000000
vt 0.000000 0.000000
vt 0.000000 0.000000
vt 0.000000 0.000000
vt 0.000000 0.000000
vt 0.686800 0.046400
vt 0.743400 0.011000
vt 0.838100 0.056600
vt 0.191800 0.557000
vt 0.216200 0.492200
vt 0.266800 0.584300
vt 0.583800 0.182100
vt 0.609100 0.063200
vt 0.214885 0.673795
vt 0.216572 0.674300
vt 0.215400 0.676400
vt 0.054938 0.556981
vt 0.112000 0.543400
vt 0.080517 0.588505
vt 0.131000 0.653600
vt 0.139656 0.639847
vt 0.323440 0.696197
vt 0.287719 0.700600
vt 0.294988 0.694730
vt 0.419308 0.668188
vt 0.426600 0.660500
vt 0.423512 0.668316
vt 0.120342 0.654636
vt 0.129897 0.658286
vt 0.124045 0.613264
vt 0.127326 0.632293
vt 0.228079 0.653682
vt 0.276256 0.660071
vt 0.382900 0.543000
vt 0.344800 0.654500
vt 0.512600 0.630400
vt 0.813361 0.115642
vt 0.856004 0.085694
vt 0.013269 0.566786
vt 0.013322 0.566885
vt 0.012000 0.567200
vt 0.102400 0.537700
vt 0.736400 0.112900
vt 0.877331 0.111202
vt 0.877800 0.110200
vt 0.878589 0.111698
vt 0.146588 0.628834
vt 0.755571 0.137221
vt 0.344301 0.664825
vt 0.343665 0.677982
vt 0.314000 0.679375
vt 0.332159 0.664709
vt 0.607181 0.188320
vt 0.600277 0.191931
vt 0.414051 0.673731
vt 0.210387 0.651039
vt 0.222656 0.663398
vt 0.212254 0.660485
vt 0.172954 0.641543
vt 0.801887 0.143025
vt 0.865045 0.100386
vt 0.809976 0.139051
vt 0.714377 0.148024
vt 0.401100 0.687385
vt 0.421843 0.672541
vt 0.417104 0.684534
vt 0.432027 0.668813
vt 0.433360 0.670855
vt 0.278380 0.677092
vt 0.280307 0.692537
vt 0.443294 0.667760
vt 0.524024 0.650365
vt 0.499507 0.650249
vt 0.859410 0.085371
vt 0.053876 0.553535
vt 0.030027 0.562910
vt 0.069180 0.604747
vt 0.103806 0.621150
vt 0.126516 0.627591
vt 0.143321 0.634025
vt 0.800875 0.145441
vt 0.770951 0.156732
vt 0.764769 0.148890
vt 0.870530 0.109299
vt 0.510046 0.668365
vt 0.488590 0.666799
vt 0.490889 0.663314
vt 0.870148 0.099869
vt 0.029424 0.561514
vt 0.065344 0.610242
vt 0.697150 0.175501
vt 0.796274 0.156420
vt 0.871804 0.111369
vt 0.877243 0.109448
vt 0.056806 0.622474
vt 0.535382 0.670213
vt 0.342900 0.693798
vt 0.741751 0.168198
vt 0.696379 0.176730
vt 0.688663 0.178998
vt 0.633304 0.195269
vt 0.616658 0.201706
vt 0.440213 0.681354
vt 0.775053 0.161936
vt 0.267005 0.698827
vt 0.217007 0.689383
vt 0.211584 0.687949
vt 0.133783 0.659464
vt 0.281330 0.700737
vt 0.012492 0.570148
vn -0.6338 0.7447 -0.2090
vn -0.4634 -0.8769 0.1273
vn 0.4648 -0.8115 0.3541
vn -0.3721 -0.7962 0.4771
vn 0.8794 0.0245 0.4755
vn 0.9992 -0.0292 -0.0268
vn -0.3683 -0.7456 -0.5554
vn 0.6261 -0.6968 -0.3500
vn 0.9289 0.1611 0.3335
vn 0.9911 0.0841 0.1035
vn 0.9410 0.1976 0.2749
vn 0.1036 -0.1531 0.9828
vn 0.3620 -0.3111 0.8787
vn 0.3478 0.1874 0.9187
vn 0.6509 0.2852 0.7036
vn 0.7759 0.1945 0.6001
vn 0.8936 -0.0185 -0.4484
vn 0.9424 -0.0811 -0.3244
vn 0.9260 -0.0571 -0.3732
vn 0.7019 -0.0968 -0.7057
vn 0.3944 -0.1987 -0.8972
vn 0.1508 -0.0716 -0.9860
vn 0.4428 0.2616 0.8576
vn 0.5273 0.3941 0.7528
vn 0.5815 0.1941 0.7900
vn 0.9920 -0.0002 -0.1263
vn 0.8813 -0.0525 -0.4696
vn -0.5563 -0.7912 -0.2540
vn -0.5422 -0.8092 -0.2263
vn -0.3816 -0.8003 0.4625
vn 0.1037 -0.1531 0.9828
vn -0.4812 -0.4594 0.7466
vn -0.6804 -0.7020 0.2105
vn -0.7951 -0.5321 0.2912
vn 0.0763 0.1795 0.9808
vn -0.4383 -0.8653 0.2432
vn 0.8614 -0.0522 -0.5052
vn 0.9260 -0.0572 -0.3732
vn -0.4552 -0.8790 0.1420
vn -0.8080 -0.3436 -0.4786
vn 0.7806 -0.1203 -0.6133
vn 0.5305 -0.0499 -0.8462
vn 0.6180 -0.0732 -0.7828
vn 0.8351 0.2424 0.4938
vn -0.5565 -0.7911 -0.2540
vn -0.5422 -0.8092 -0.2262
vn -0.5406 -0.7985 -0.2647
vn -0.1071 -0.8247 0.5554
vn 0.7214 -0.1024 -0.6849
vn 0.4199 -0.0219 -0.9073
vn 0.4199 -0.0218 -0.9073
vn -0.0258 -0.1073 -0.9939
vn -0.0258 -0.1072 -0.9939
vn -0.0216 -0.0995 -0.9948
vn 0.9920 -0.0002 -0.1264
vn -0.0301 -0.1151 -0.9929
vn -0.4037 -0.0703 -0.9122
vn -0.3818 -0.8002 0.4625
vn 0.1037 -0.1528 0.9828
vn 0.4444 0.2398 0.8632
vn -0.5562 -0.7913 -0.2540
vn -0.7175 -0.0150 -0.6964
vn -0.2487 -0.0911 -0.9643
vn -0.3818 -0.8003 0.4624
vn -0.1071 -0.8246 0.5554
vn -0.5637 -0.7876 -0.2488
vn -0.5424 -0.8115 -0.2175
vn 0.3571 0.1924 0.9140
vn -0.8065 -0.4691 -0.3597
vn 0.7806 -0.1203 -0.6134
vn -0.1905 -0.7210 0.6662
vn -0.0573 -0.8736 0.4833
vn -0.0205 -0.9035 0.4280
vn -0.1585 -0.9230 0.3505
vn -0.0268 -0.1091 -0.9937
vn -0.4782 -0.8670 0.1399
vn 0.9937 0.1012 0.0476
vn 0.9573 0.2284 0.1771
vn 0.8538 0.2917 0.4313
vn 0.7763 0.3183 0.5441
vn 0.9892 -0.0113 -0.1463
usemtl None.000
s off
f 79/1/1 80/2/1 35/3/1 36/4/1 81/5/1 22/6/1 23/7/1 93/8/1 92/9/1 91/10/1 90/11/1 94/12/1 17/13/1 16/14/1 83/15/1 40/16/1 39/17/1 19/18/1 21/19/1 55/20/1 56/21/1 88/22/1 74/23/1 73/24/1 82/25/1 87/26/1 86/27/1 85/28/1 84/29/1 89/30/1
s 1
f 1/31/2 2/32/3 3/33/4
f 4/34/5 2/35/3 5/36/6
f 1/31/2 6/37/7 7/38/8
f 8/39/9 9/40/10 10/41/11
f 11/42/12 12/43/13 13/44/14
f 8/39/9 10/41/11 14/45/15 15/46/16
f 16/47/17 17/48/18 18/49/19
f 19/50/20 20/51/21 21/52/22
f 22/53/23 14/45/15 23/54/24
f 13/44/14 12/43/13 24/55/25
f 25/56/25 15/46/16 14/45/15
f 26/57/10 5/36/6 27/58/26
f 7/59/8 20/51/21 28/60/27
f 7/59/8 6/61/7 20/51/21
f 29/62/28 3/33/4 30/63/29
f 5/36/6 7/59/8 28/60/27
f 5/36/6 2/35/3 7/59/8
f 2/32/3 1/31/2 7/38/8
f 31/64/30 32/65/31 33/66/32
f 3/67/4 2/35/3 12/43/13
f 2/35/3 4/34/5 12/43/13
f 1/31/2 34/68/33 6/37/7
f 1/31/2 3/33/4 34/68/33
f 35/69/34 33/70/32 36/71/35
f 12/43/13 4/34/5 37/72/16 24/55/25
f 3/33/4 29/62/28 38/73/36 34/68/33
f 39/74/37 40/75/17 41/76/38 42/77/38
f 6/37/7 43/78/39 44/79/40
f 39/74/41 19/50/42 45/80/43 40/75/41
f 46/81/9 26/57/10 47/82/10 48/83/9
f 46/81/9 48/83/9 49/84/44
f 50/85/45 29/62/28 30/63/29 51/86/46 52/87/47
f 34/68/33 38/73/36 53/88/48
f 34/68/33 53/88/48 43/78/39 6/37/7
f 54/89/49 45/80/43 55/90/50 56/91/51
f 57/92/52 58/93/53 55/90/54 21/52/22
f 9/40/10 47/82/10 59/94/26 60/95/55
f 27/58/26 42/77/38 41/76/38 59/94/26
f 57/92/52 61/96/56 58/93/53
f 6/61/7 44/97/40 62/98/57
f 3/33/4 63/99/58 30/63/29
f 3/67/4 12/43/13 11/42/12 63/100/58
f 64/101/59 11/42/12 13/44/14 65/102/14
f 66/103/60 67/104/25 25/56/25
f 67/104/25 68/105/16 15/46/16 25/56/25
f 50/85/45 69/106/61 70/107/36 71/108/36
f 48/83/9 47/82/10 9/40/10 8/39/9
f 49/84/44 68/105/16 37/72/16
f 72/109/46 52/87/47 51/86/46
f 59/94/26 41/76/38 18/49/19 60/95/55
f 73/110/62 74/111/63 75/112/57
f 63/99/58 76/113/64 51/86/46 30/63/29
f 63/100/58 11/42/12 64/101/59 76/114/64
f 32/65/31 64/101/59 65/102/14 77/115/14
f 77/115/14 65/102/14 66/103/60
f 69/106/61 50/85/45 52/87/47
f 65/102/14 13/44/14 24/55/25 67/104/25 66/103/60
f 24/55/25 37/72/16 68/105/16 67/104/25
f 29/62/28 50/85/45 71/108/36 38/73/36
f 38/73/36 71/108/36 78/116/65 53/88/48
f 62/98/57 75/112/57 61/96/56
f 48/83/9 8/39/9 15/46/16 68/105/16 49/84/44
f 28/60/27 39/74/37 42/77/38
f 28/60/27 20/51/21 19/50/20 39/74/37
f 4/34/5 5/36/6 26/57/10 46/81/9
f 4/34/5 46/81/9 49/84/44 37/72/16
f 45/80/43 19/50/42 21/52/50 55/90/50
f 47/82/10 26/57/10 27/58/26 59/94/26
f 5/36/6 28/60/27 42/77/38 27/58/26
f 79/117/66 69/106/61 52/87/47 72/109/46 80/118/67
f 20/51/21 57/92/52 21/52/22
f 6/61/7 62/98/57 61/96/56 57/92/52 20/51/21
f 76/113/64 31/119/30 72/109/46 51/86/46
f 76/114/64 64/101/59 32/65/31 31/64/30
f 81/120/68 77/115/14 66/103/60 25/56/25 14/45/15 22/53/23
f 44/97/40 82/121/69 73/110/62 75/112/57 62/98/57
f 40/75/17 83/122/17 16/47/17 18/49/19 41/76/38
f 40/75/41 45/80/43 54/89/49 83/122/70
f 71/108/36 70/107/36 84/123/71 85/124/72 78/116/65
f 78/116/65 85/124/72 86/125/73
f 43/78/39 87/126/74 82/127/69 44/79/40
f 53/88/48 78/116/65 86/125/73 87/126/74 43/78/39
f 58/93/53 88/128/75 56/91/54 55/90/54
f 75/112/57 74/111/63 88/128/75 58/93/53 61/96/56
f 70/107/36 89/129/76 84/123/71
f 69/106/61 79/117/66 89/129/76 70/107/36
f 10/41/11 90/130/77 91/131/78
f 14/45/15 10/41/11 92/132/79 93/133/80
f 10/41/11 91/131/78 92/132/79
f 31/119/30 33/70/32 35/69/34 80/118/67 72/109/46
f 60/95/55 18/49/19 17/48/18 94/134/81
f 10/41/11 9/40/10 60/95/55 94/134/81 90/130/77
f 14/45/15 93/133/80 23/54/24
f 33/66/32 32/65/31 77/115/14 81/120/68 36/135/35
