# Blender v2.79 (sub 0) OBJ File: ''
# www.blender.org
mtllib SuperiorLob.mtl
o LungLeftLow_Icosphere.002
v -0.041959 -0.071516 0.054838
v -0.060300 -0.060282 0.061752
v -0.136512 -0.141856 -0.048339
v -0.107514 -0.135144 -0.032782
v -0.061289 -0.096501 0.022266
v -0.124965 -0.150794 -0.066653
v -0.016766 0.049975 0.060432
v -0.138106 -0.038988 -0.011771
v -0.057657 -0.022060 0.059803
v -0.063566 -0.089450 -0.160919
v -0.122582 -0.144195 -0.098929
v -0.120728 0.048422 -0.137001
v 0.045973 -0.028473 -0.117082
v 0.012768 -0.056015 -0.153940
v 0.032214 0.035510 -0.147146
v -0.071615 0.002147 0.187334
v -0.100178 -0.078405 0.197889
v -0.026888 0.039336 -0.174590
v -0.025383 0.082575 0.128706
v 0.029601 0.137275 0.046474
v -0.049900 0.244587 0.050792
v -0.156235 0.159647 0.128678
v -0.141621 0.188229 0.126570
v -0.134506 0.305748 0.019862
v -0.130828 0.181578 -0.113715
v -0.139797 0.277865 -0.000518
v -0.133094 0.318943 -0.061303
v -0.008621 0.152695 -0.152077
v -0.083262 0.199447 -0.138874
v -0.030711 0.267707 -0.107853
v 0.055599 0.130895 -0.010501
v 0.032965 0.172885 -0.098192
v 0.010949 0.246605 -0.027507
v -0.089717 0.332224 -0.014647
v 0.078515 0.016458 -0.054086
v -0.138640 0.039261 -0.109779
v -0.163912 0.101356 0.145989
v -0.137284 0.115964 0.149322
v 0.021170 0.004196 0.136366
v 0.017890 0.002236 0.140464
v 0.068890 0.025097 0.044588
v 0.071921 0.025926 0.036655
v -0.045176 -0.099381 -0.160324
v -0.009275 -0.073108 -0.163729
v -0.135597 -0.074601 -0.039039
v 0.077632 0.014759 -0.032046
v 0.078872 0.011314 -0.051271
v 0.076502 0.007665 -0.057735
v -0.065931 -0.114536 -0.157939
v -0.117932 -0.148589 -0.103625
v -0.092644 -0.083167 0.196866
v -0.094703 -0.083376 0.203746
v -0.051607 -0.073360 0.083452
v 0.046830 -0.032457 -0.115210
v 0.057294 -0.018308 -0.094942
v -0.113182 -0.159915 -0.085344
v -0.104083 -0.161673 -0.117611
v 0.008466 -0.076262 -0.155443
v -0.087626 -0.130541 -0.022111
v -0.089953 -0.134753 -0.031114
v -0.027159 -0.109110 -0.159742
v -0.006450 -0.091139 -0.161988
v -0.068807 -0.145036 -0.154317
v -0.100213 -0.165330 -0.121519
v -0.083208 -0.154342 -0.139278
v -0.106653 -0.164969 -0.095700
v -0.092973 -0.081691 0.204339
v -0.046501 -0.044209 0.187281
v 0.011151 -0.002473 0.146007
vt 0.775053 0.161936
vt 0.787400 0.177600
vt 0.677400 0.207000
vt 0.688658 0.189045
vt 0.741751 0.168198
vt 0.660348 0.202464
vt 0.849600 0.248900
vt 0.734200 0.247300
vt 0.805400 0.205300
vt 0.459500 0.710900
vt 0.554200 0.703100
vt 0.436500 0.847000
vt 0.342736 0.697192
vt 0.390050 0.699036
vt 0.340100 0.751700
vt 0.903600 0.159200
vt 0.874900 0.116400
vt 0.378200 0.783000
vt 0.113000 0.730100
vt 0.185200 0.767800
vt 0.154900 0.851400
vt 0.048800 0.830200
vt 0.073000 0.837800
vt 0.142700 0.938500
vt 0.785600 0.438600
vt 0.922100 0.452100
vt 0.893200 0.513700
vt 0.310600 0.829000
vt 0.315200 0.890400
vt 0.256400 0.879700
vt 0.226900 0.769300
vt 0.269100 0.814200
vt 0.216200 0.843900
vt 0.190500 0.918200
vt 0.219600 0.964600
vt 0.343300 0.926300
vt 0.950600 0.466600
vt 0.986500 0.303100
vt 0.281900 0.705300
vt 0.717900 0.340000
vt 0.980000 0.250700
vt 0.038900 0.785000
vt 0.028100 0.663600
vt 0.133783 0.659464
vt 0.129897 0.658286
vt 0.211584 0.687949
vt 0.217007 0.689383
vt 0.449758 0.695975
vt 0.411728 0.698141
vt 0.700300 0.361200
vt 0.643800 0.217900
vt 0.703600 0.235400
vt 0.012000 0.789300
vt 0.267005 0.698827
vt 0.281330 0.700737
vt 0.287719 0.700600
vt 0.472628 0.690998
vt 0.550288 0.696263
vt 0.638158 0.214533
vt 0.871804 0.111369
vt 0.877331 0.111202
vt 0.796274 0.156420
vt 0.342900 0.693798
vt 0.323440 0.696197
vt 0.642946 0.197834
vt 0.621354 0.204507
vt 0.401100 0.687385
vt 0.696379 0.176730
vt 0.688663 0.178998
vt 0.440213 0.681354
vt 0.417104 0.684534
vt 0.488590 0.666799
vt 0.535382 0.670213
vt 0.538637 0.675903
vt 0.510046 0.668365
vt 0.633304 0.195269
vt 0.616658 0.201706
vt 0.012492 0.570148
vt 0.056806 0.622474
vt 0.878589 0.111698
vt 0.120342 0.654636
vn -0.3791 -0.8476 0.3714
vn -0.8293 -0.5072 0.2344
vn -0.7836 -0.5528 0.2834
vn -0.1071 -0.8246 0.5554
vn -0.1905 -0.7211 0.6662
vn -0.4552 -0.8790 0.1420
vn -0.9945 -0.1049 0.0075
vn -0.8590 -0.0347 0.5109
vn -0.9422 0.1841 0.2800
vn -0.3534 -0.0958 -0.9305
vn -0.8665 -0.2958 -0.4021
vn -0.6352 0.0032 -0.7723
vn 0.8424 -0.0699 -0.5343
vn 0.6180 -0.0732 -0.7828
vn 0.7057 0.0566 -0.7062
vn -0.4371 0.3495 0.8287
vn -0.9793 -0.0361 0.1993
vn 0.0385 0.0489 -0.9981
vn 0.4818 0.4134 0.7727
vn 0.7600 0.3869 0.5222
vn 0.4687 0.5744 0.6711
vn -0.8140 0.2634 0.5178
vn -0.2555 0.5345 0.8056
vn -0.5648 0.6741 0.4760
vn -0.8192 0.1356 -0.5572
vn -0.9997 0.0113 -0.0214
vn -0.5893 0.6924 -0.4162
vn 0.3762 0.2766 -0.8843
vn -0.2556 0.2949 -0.9207
vn 0.4040 0.6566 -0.6369
vn 0.9443 0.3046 0.1244
vn 0.8549 0.3364 -0.3950
vn 0.7982 0.5870 0.1354
vn 0.1997 0.9622 0.1850
vn 0.9740 0.0849 -0.2101
vn -0.9903 0.0026 -0.1386
vn -0.9072 -0.2864 0.3081
vn -0.1675 0.2726 0.9474
vn 0.6636 0.3894 0.6388
vn 0.5119 0.3879 0.7665
vn 0.8540 0.2919 0.4306
vn 0.9349 0.2558 0.2459
vn -0.0258 -0.1073 -0.9939
vn 0.2046 -0.0623 -0.9769
vn -0.9656 -0.1124 0.2343
vn 0.9840 0.1701 0.0525
vn 0.9939 0.0088 -0.1099
vn 0.9075 -0.0341 -0.4186
vn -0.4037 -0.0703 -0.9122
vn -0.8080 -0.3436 -0.4786
vn -0.7948 -0.5425 -0.2721
vn -0.7926 -0.1904 0.5793
vn -0.8379 -0.4569 -0.2987
vn 0.8374 -0.0744 -0.5416
vn 0.8936 -0.0185 -0.4484
vn 0.5090 -0.0443 -0.8596
vn -0.1507 -0.7741 0.6148
vn -0.0205 -0.9035 0.4280
vn -0.0249 -0.1055 -0.9941
vn 0.1232 -0.0763 -0.9895
vn -0.5697 -0.0438 -0.8207
vn -0.7793 -0.1848 -0.5988
vn -0.7175 -0.0151 -0.6964
vn -0.6629 -0.7468 -0.0534
vn -0.4175 0.2816 0.8640
vn 0.3388 0.1825 0.9230
vn 0.4360 0.3332 0.8360
vn 0.6561 -0.7343 0.1739
usemtl None.000
s 1
f 1/1/1 2/2/2 3/3/3 4/4/4 5/5/5
f 4/4/4 3/3/3 6/6/6
f 7/7/7 8/8/8 9/9/9
f 10/10/10 11/11/11 12/12/12
f 13/13/13 14/14/14 15/15/15
f 16/16/16 7/7/7 9/9/9 17/17/17
f 10/10/10 12/12/12 18/18/18
f 19/19/19 20/20/20 21/21/21
f 22/22/22 23/23/23 24/24/24
f 25/25/25 26/26/26 27/27/27
f 28/28/28 29/29/29 30/30/30
f 31/31/31 32/32/32 33/33/33
f 33/33/33 30/30/30 34/34/34
f 33/33/33 32/32/32 30/30/30
f 32/32/32 28/28/28 30/30/30
f 30/30/30 27/35/27 34/34/34
f 30/30/30 29/29/29 27/35/27
f 29/29/29 25/36/25 27/35/27
f 27/35/27 24/24/24 34/34/34
f 27/27/27 26/26/26 24/37/24
f 26/26/26 22/38/22 24/37/24
f 24/24/24 21/21/21 34/34/34
f 24/24/24 23/23/23 21/21/21
f 23/23/23 19/19/19 21/21/21
f 21/21/21 33/33/33 34/34/34
f 21/21/21 20/20/20 33/33/33
f 20/20/20 31/31/31 33/33/33
f 35/39/35 32/32/32 31/31/31
f 35/39/35 15/15/15 32/32/32
f 15/15/15 28/28/28 32/32/32
f 18/18/18 29/29/29 28/28/28
f 18/18/18 12/12/12 29/29/29
f 12/12/12 25/36/25 29/29/29
f 36/40/36 26/26/26 25/25/25
f 7/7/7 37/41/37 26/26/26
f 37/41/37 22/38/22 26/26/26
f 38/42/38 23/23/23 22/22/22
f 38/42/38 16/43/16 23/23/23
f 16/43/16 19/19/19 23/23/23
f 39/44/39 20/20/20 19/19/19 40/45/40
f 39/44/39 41/46/41 20/20/20
f 42/47/42 31/31/31 20/20/20 41/46/41
f 15/15/15 18/18/18 28/28/28
f 43/48/43 10/10/10 18/18/18 44/49/44
f 12/50/12 36/40/36 25/25/25
f 12/50/12 11/51/11 36/40/36
f 11/51/11 45/52/45 36/40/36
f 37/53/37 38/42/38 22/22/22
f 16/16/16 37/41/37 7/7/7
f 46/54/46 35/39/35 31/31/31 42/47/42
f 47/55/47 48/56/48 35/39/35
f 49/57/49 10/10/10 43/48/43
f 50/58/50 11/11/11 10/10/10 49/57/49
f 6/6/6 3/3/3 11/51/11 50/59/50
f 3/3/3 45/52/45 11/51/11
f 9/9/9 45/52/45 3/3/3 2/2/2
f 51/60/51 52/61/52 17/17/17
f 8/8/8 7/7/7 36/40/36
f 45/52/45 9/9/9 8/8/8
f 53/62/53 2/2/2 1/1/1
f 36/40/36 7/7/7 26/26/26
f 45/52/45 8/8/8 36/40/36
f 37/53/37 16/43/16 38/42/38
f 54/63/54 13/13/13 55/64/55
f 56/65/6 6/6/6 50/59/50 57/66/50
f 54/63/54 58/67/56 14/14/14 13/13/13
f 59/68/57 5/5/5 4/4/4
f 59/68/57 4/4/4 6/6/6 56/65/6 60/69/58
f 61/70/59 43/48/43 44/49/44 62/71/60
f 15/15/15 14/14/14 44/49/44 18/18/18
f 46/54/46 47/55/47 35/39/35
f 63/72/61 49/57/49 43/48/43 61/70/59
f 64/73/62 57/74/50 65/75/63
f 66/76/64 56/65/6 57/66/50 64/77/62
f 66/76/64 60/69/58 56/65/6
f 67/78/65 68/79/66 16/43/16
f 14/14/14 58/67/56 62/71/60 44/49/44
f 57/74/50 50/58/50 49/57/49 63/72/61 65/75/63
f 13/13/13 15/15/15 35/39/35 48/56/48 55/64/55
f 17/17/17 52/61/52 67/80/65 16/16/16
f 2/2/2 53/62/53 51/60/51 17/17/17 9/9/9
f 16/43/16 69/81/67 40/45/40 19/19/19
f 16/43/16 68/79/66 69/81/67
f 51/60/68 53/62/68 1/1/68 5/5/68 59/68/68 60/69/68 66/76/68 64/73/68 65/75/68 63/72/68 61/70/68 62/71/68 58/67/68 54/63/68 55/64/68 48/56/68 47/55/68 46/54/68 42/47/68 41/46/68 39/44/68 40/45/68 69/81/68 68/79/68 67/80/68 52/61/68
