# Blender v2.79 (sub 0) OBJ File: 'brain separate.blend'
# www.blender.org
mtllib FrontalLob.mtl
o Assem1.001
v -2.086833 0.738665 -3.129569
v -1.818798 0.992436 -3.225178
v -1.837949 0.831135 -2.821144
v -1.724458 0.917018 -2.801787
v -1.887351 0.761817 -2.839071
v -1.870536 0.785411 -2.832968
v -2.385576 1.146450 -3.797839
v -2.107312 1.782525 -3.776304
v -1.599247 1.642258 -3.481246
v -1.300933 1.930232 -2.946157
v -1.935086 2.615239 -3.446187
v -1.685306 0.986192 -2.778086
v -1.638845 1.066639 -2.747467
v -1.590348 1.148553 -2.712400
v -1.592071 1.145642 -2.713646
v -1.000175 1.925391 -2.400559
v -0.993178 1.906966 -2.388381
v -1.164865 2.286713 -2.689238
v -1.162312 2.268404 -2.685122
v -1.156063 2.238609 -2.674622
v -1.145204 2.203944 -2.655889
v -1.156315 2.475677 -2.668413
v -1.165361 2.401994 -2.686898
v -1.247193 2.617294 -2.829334
v -1.167930 2.347497 -2.693091
v -1.166628 2.305541 -2.691907
v -1.125456 2.158448 -2.621335
v -1.087762 2.089703 -2.554869
v -1.040535 2.012397 -2.471349
v -1.024172 1.985754 -2.442405
v -1.011914 1.956307 -2.420992
v -1.137990 1.511445 -2.506539
v -1.155384 1.499468 -2.515766
v -1.292634 1.399718 -2.585115
v -1.366363 1.342010 -2.619626
v -1.439378 1.281934 -2.651856
v -1.515352 1.216342 -2.683341
v -1.021486 1.678987 -2.357992
v -1.045745 1.642203 -2.388248
v -1.070557 1.607276 -2.420153
v -0.986198 1.762082 -2.324483
v -0.988114 1.753717 -2.324934
v -0.990373 1.745484 -2.326044
v -0.986573 1.866177 -2.362107
v -0.982311 1.823014 -2.339172
v -0.995867 1.729395 -2.330140
v -1.004975 1.708686 -2.339052
v -0.982054 1.796778 -2.329400
v -0.983522 1.778379 -2.325490
v -1.147615 2.665033 -2.585518
v -1.152678 2.592409 -2.621264
v -1.155180 2.538927 -2.644778
v -1.156298 2.484268 -2.665517
v -1.160127 2.723508 -2.552612
v -1.182644 2.837316 -2.484940
v -1.454437 3.388713 -2.478570
v -1.203972 2.950433 -2.415598
v -1.266986 3.258053 -2.236938
v -1.249564 3.180537 -2.278909
v -1.225874 3.064966 -2.345999
v -1.391598 3.491001 -2.128333
v -1.377133 3.465090 -2.138858
v -1.343598 3.405014 -2.163262
v -1.311988 3.345752 -2.191128
v -1.533101 3.572401 -2.092098
v -1.695208 3.661523 -2.061521
v -1.613706 3.617289 -2.075375
v -2.263754 0.708567 -2.814525
v -2.542864 0.704927 -3.513368
v -3.035492 0.966342 -3.947903
v -3.110492 1.526933 -4.193950
v -2.548491 1.491778 -4.091419
v -3.050375 2.161063 -4.154493
v -2.248243 2.429276 -3.813368
v -2.564883 2.962423 -3.599406
v -2.989128 2.534174 -3.850896
v -3.009264 3.165710 -3.539795
v -2.337338 3.838603 -2.496800
v -2.270389 3.954824 -2.072795
v -2.189858 3.918286 -2.058490
v -1.828157 3.735708 -2.046158
v -2.065768 3.858977 -2.044903
v -1.945838 3.798306 -2.041188
v -2.435128 3.975565 -2.066432
v -2.757720 3.892103 -2.478601
v -2.544703 3.989362 -2.062199
v -2.756795 4.016472 -2.057103
v -2.826846 3.987951 -2.019726
v -2.839101 3.982962 -2.013187
v -2.732566 0.593457 -2.795186
v -3.046065 0.629135 -3.567153
v -2.811340 0.579785 -2.789960
v -2.904236 0.563661 -2.783797
v -3.294691 2.913861 -3.398815
v -3.341232 2.272497 -3.646521
v -3.392036 1.592492 -3.863631
v -3.591105 3.178623 -3.478789
v -3.117005 3.729609 -2.295437
v -2.928443 3.941718 -1.970421
v -3.034692 3.889716 -1.929368
v -3.090382 3.861242 -1.911895
v -3.381205 4.000161 -1.948547
v -3.538414 3.916871 -2.385511
v -3.454288 4.007955 -1.944711
v -3.624463 4.026107 -1.935778
v -3.154110 3.893504 -1.915129
v -3.276820 3.952770 -1.928880
v -4.647408 0.881703 -2.499330
v -4.461468 0.792211 -2.837384
v -4.636813 0.873180 -2.503216
v -4.542062 0.796965 -2.537964
v -4.252777 0.758918 -2.581168
v -3.795448 0.609986 -2.672401
v -3.702219 0.579625 -2.690999
v -3.302186 0.771283 -2.681593
v -3.361065 0.678969 -3.309955
v -2.966255 0.584195 -2.771340
v -2.942374 0.570894 -2.777721
v -3.390628 1.037173 -3.704071
v -3.713558 0.694204 -3.548456
v -3.796975 0.990501 -3.857104
v -3.653169 0.567478 -2.699486
v -4.173898 0.760787 -3.337416
v -3.637904 0.564651 -2.701886
v -3.624966 0.565670 -2.703075
v -3.564989 0.603786 -2.700113
v -5.206845 2.922119 -2.030154
v -5.188101 2.901272 -2.201131
v -5.216336 2.851785 -2.068198
v -5.224851 2.788694 -2.102324
v -4.270243 1.546401 -3.886117
v -3.746985 1.547126 -4.118054
v -3.772042 2.168903 -4.063622
v -3.721173 2.557399 -3.763607
v -4.021029 3.011212 -3.437083
v -3.957792 3.897950 -2.281359
v -3.766509 4.017798 -1.907696
v -3.911084 4.009343 -1.879113
v -4.833605 3.487173 -2.086987
v -4.500052 3.737521 -1.728034
v -4.475619 3.749733 -1.729983
v -4.341643 3.815449 -1.746449
v -4.225338 3.870623 -1.769380
v -4.109141 3.923803 -1.801251
v -3.991499 3.975443 -1.843662
v -4.952893 3.387909 -1.791056
v -4.903593 3.459696 -1.762865
v -4.863992 3.516687 -1.743495
v -4.823245 3.574429 -1.727967
v -4.805100 3.600142 -1.721052
v -4.649656 3.671274 -1.720479
v -5.360715 2.004948 -1.840533
v -5.361417 2.019207 -1.849545
v -5.181857 1.985170 -2.522671
v -5.190931 1.532126 -2.113631
v -5.232880 1.628827 -2.029565
v -5.285239 1.740988 -1.917593
v -5.302357 1.777268 -1.880667
v -5.319399 1.815339 -1.845508
v -5.331590 1.845949 -1.823146
v -5.338855 1.867177 -1.812281
v -5.343687 1.883594 -1.806954
v -5.347904 1.900458 -1.804392
v -5.351315 1.916949 -1.804673
v -5.354367 1.935490 -1.808045
v -5.357512 1.961818 -1.817472
v -4.868671 1.267917 -2.360991
v -5.038279 1.751362 -3.071175
v -4.918524 1.283105 -2.300297
v -5.037229 1.396077 -2.222847
v -5.108570 1.460690 -2.173434
v -5.180042 1.522682 -2.121537
v -4.786438 1.110362 -2.971767
v -4.696507 0.921057 -2.480556
v -4.840840 1.036055 -2.422301
v -4.883657 1.249946 -2.321151
v -4.869280 1.236272 -2.329751
v -4.858439 1.162003 -2.366694
v -4.847785 1.086522 -2.400991
v -5.124104 3.075066 -1.948203
v -5.063656 3.186803 -1.888333
v -5.001975 3.299583 -1.831471
v -5.287947 2.222955 -2.054037
v -5.261963 2.289680 -2.128096
v -5.247562 2.334092 -2.166723
v -5.238839 2.368135 -2.187790
v -5.233001 2.397548 -2.199732
v -5.230083 2.415832 -2.204530
v -5.227591 2.434376 -2.207677
v -5.223399 2.476157 -2.209516
v -5.220245 2.530636 -2.203392
v -5.219175 2.572352 -2.193749
v -5.219005 2.613158 -2.181079
v -5.348727 2.062925 -1.882089
v -5.339829 2.093579 -1.904907
v -5.219862 2.668059 -2.160029
v -5.221633 2.721497 -2.136081
v -5.330780 2.122382 -1.928884
v -5.319766 2.148156 -1.961092
v -5.016979 2.471597 -2.699641
v -4.494166 2.587577 -3.433461
v -4.792111 1.796786 -3.331743
vn 0.6100 -0.7455 -0.2687
vn 0.7642 -0.4175 -0.4915
vn 0.7642 -0.4176 -0.4915
vn 0.4590 -0.1713 -0.8718
vn 0.7640 0.2846 -0.5791
vn 0.5341 0.2138 -0.8180
vn 0.8750 -0.4038 -0.2669
vn 0.8751 -0.4038 -0.2669
vn 0.8757 0.0136 -0.4826
vn 0.8757 0.0135 -0.4826
vn 0.6355 -0.4276 -0.6429
vn 0.6356 -0.4276 -0.6429
vn 0.8596 -0.1709 -0.4815
vn 0.8597 -0.1709 -0.4814
vn 0.8596 -0.1709 -0.4814
vn 0.8596 -0.1710 -0.4814
vn 0.8596 -0.1710 -0.4815
vn 0.9084 0.1320 -0.3968
vn 0.9083 0.1319 -0.3969
vn 0.8152 0.4066 -0.4125
vn 0.7753 0.5552 -0.3012
vn 0.4085 0.8538 -0.3227
vn 0.4086 0.8538 -0.3225
vn 0.1390 -0.9902 -0.0165
vn 0.8745 -0.4023 -0.2710
vn 0.5658 -0.4606 -0.6839
vn 0.4855 -0.7067 -0.5147
vn 0.4897 -0.5888 -0.6430
vn 0.3334 -0.5917 -0.7340
vn 0.1427 -0.3817 -0.9132
vn 0.6712 -0.2702 -0.6903
vn 0.3262 -0.5182 -0.7906
vn 0.1820 0.0439 -0.9823
vn 0.3383 0.1664 -0.9262
vn 0.7249 0.1191 -0.6785
vn 0.5480 0.0717 -0.8334
vn 0.0826 0.4425 -0.8929
vn 0.4378 0.8471 -0.3013
vn 0.2500 0.7323 -0.6335
vn 0.6657 0.0742 -0.7426
vn 0.3649 0.6908 -0.6242
vn 0.5920 0.4600 -0.6618
vn 0.4726 0.5553 -0.6843
vn 0.4735 0.5582 -0.6814
vn 0.1094 0.9541 -0.2788
vn -0.4759 0.8438 -0.2479
vn -0.4758 0.8439 -0.2479
vn 0.1150 0.9527 -0.2814
vn 0.2399 -0.9699 0.0420
vn 0.1628 -0.9804 -0.1114
vn 0.1807 -0.7388 -0.6493
vn 0.1589 -0.9820 -0.1024
vn -0.6338 0.3255 -0.7017
vn 0.1056 0.4237 -0.8996
vn -0.6411 0.3165 -0.6992
vn 0.1264 0.6135 -0.7795
vn -0.6841 0.5246 -0.5068
vn -0.7463 -0.3487 -0.5669
vn -0.8226 0.2278 -0.5210
vn -0.7453 0.1116 -0.6574
vn 0.0787 0.8138 -0.5757
vn 0.6429 0.5628 -0.5196
vn -0.5364 0.7503 -0.3865
vn -0.7110 0.6153 -0.3404
vn -0.5018 0.8283 -0.2494
vn -0.5017 0.8283 -0.2494
vn 0.0922 0.9715 -0.2183
vn 0.4410 0.8391 -0.3186
vn 0.4374 0.7353 -0.5176
vn -0.6542 -0.7382 -0.1644
vn -0.6541 -0.7383 -0.1644
vn -0.2877 -0.9513 0.1107
vn -0.1333 -0.9909 -0.0202
vn -0.4442 -0.8795 0.1708
vn 0.3995 -0.6633 -0.6328
vn -0.1933 -0.9800 -0.0469
vn -0.5438 -0.6410 -0.5418
vn 0.3663 -0.2561 -0.8946
vn -0.5203 -0.6321 -0.5742
vn -0.5816 -0.2260 -0.7814
vn -0.2534 -0.9636 -0.0852
vn -0.2003 -0.9710 -0.1307
vn -0.2004 -0.9710 -0.1307
vn 0.5323 -0.8433 0.0740
vn 0.0633 -0.9856 -0.1565
vn 0.0633 -0.9857 -0.1565
vn -0.9706 0.2018 -0.1310
vn -0.9706 0.2019 -0.1310
vn -0.3768 -0.3652 -0.8512
vn -0.4045 0.0636 -0.9123
vn 0.5688 -0.3905 -0.7239
vn 0.5720 0.0944 -0.8148
vn 0.0529 0.6060 -0.7937
vn 0.4724 0.2875 -0.8332
vn 0.6608 0.1830 -0.7279
vn 0.5579 0.4602 -0.6906
vn -0.1725 0.8202 -0.5455
vn -0.3474 0.7530 -0.5588
vn 0.4765 0.2820 -0.8327
vn -0.2571 0.4467 -0.8569
vn -0.1064 0.9614 -0.2539
vn -0.4510 0.8722 -0.1892
vn -0.4511 0.8722 -0.1892
vn -0.7953 0.5939 -0.1214
vn -0.7954 0.5939 -0.1214
vn -0.4031 0.8828 -0.2411
vn -0.9491 -0.2003 -0.2430
vn -0.9491 -0.2004 -0.2430
vn -0.9491 -0.2005 -0.2430
vn -0.9094 -0.4112 -0.0628
vn -0.7452 -0.4386 -0.5023
vn -0.6544 -0.7380 -0.1646
vn -0.7368 -0.4678 -0.4882
vn -0.7368 -0.4678 -0.4881
vn -0.9899 -0.0897 -0.1101
vn -0.6014 -0.7407 -0.2993
vn -0.6358 -0.4928 -0.5940
vn 0.3355 -0.6326 -0.6980
vn -0.5680 -0.5170 -0.6404
vn -0.3733 -0.7176 -0.5880
vn -0.8313 0.5334 -0.1562
vn -0.9616 0.0850 -0.2608
vn -0.9616 0.0850 -0.2609
vn -0.9617 0.0850 -0.2608
vn -0.9617 0.0849 -0.2607
vn -0.6050 0.4885 -0.6287
vn -0.9252 0.1952 -0.3254
vn -0.8907 0.1452 -0.4308
vn -0.5636 0.2244 -0.7950
vn -0.4175 0.4596 -0.7838
vn -0.4540 0.7187 -0.5266
vn -0.5578 0.6183 -0.5537
vn -0.9288 -0.3695 -0.0297
vn -0.7128 0.3381 -0.6145
vn -0.6466 -0.3585 -0.6734
vn -0.7582 -0.3077 -0.5748
vn -0.7669 0.4273 -0.4788
vn -0.6801 0.1643 -0.7145
vn -0.8088 0.2354 -0.5390
vn 0.1306 0.5517 0.8238
vn 0.1411 -0.3914 0.9093
vn 0.1012 -0.3059 0.9467
vn 0.1066 -0.3195 0.9416
vn 0.1032 -0.3006 0.9481
vn 0.1061 -0.2713 0.9566
vn 0.1092 -0.2627 0.9587
vn 0.1075 -0.2664 0.9578
vn 0.1067 -0.2465 0.9632
vn 0.1087 -0.2549 0.9608
vn 0.1075 -0.2744 0.9556
vn 0.1047 -0.2656 0.9584
vn 0.1067 -0.2426 0.9642
vn 0.1067 -0.2425 0.9643
vn 0.1078 -0.2445 0.9636
vn 0.1041 -0.2975 0.9490
vn 0.1031 -0.3064 0.9463
vn 0.1033 -0.3034 0.9472
vn 0.1023 -0.3168 0.9430
vn 0.1020 -0.3218 0.9413
vn 0.0879 -0.4624 0.8823
vn 0.0923 -0.4326 0.8968
vn 0.0960 -0.4005 0.9113
vn 0.0995 -0.3560 0.9292
vn 0.0968 -0.3758 0.9216
vn 0.1002 -0.3467 0.9326
vn 0.0969 -0.4024 0.9103
vn 0.0928 -0.4378 0.8943
vn 0.0907 -0.4601 0.8832
vn 0.0930 -0.4379 0.8942
vn 0.0865 -0.4999 0.8617
vn 0.0902 -0.4750 0.8753
vn 0.0859 -0.5102 0.8558
vn 0.0820 -0.5467 0.8333
vn 0.0776 -0.5859 0.8067
vn 0.0780 -0.5832 0.8086
vn 0.0777 -0.5858 0.8067
vn 0.0716 -0.6339 0.7701
vn 0.0681 -0.6690 0.7401
vn 0.0641 -0.6899 0.7210
vn 0.0714 -0.6366 0.7679
vn 0.0637 -0.6926 0.7185
vn 0.0630 -0.6971 0.7142
vn 0.0682 -0.6602 0.7480
vn 0.0798 -0.5671 0.8198
vn 0.0936 -0.4280 0.8989
vn 0.1050 -0.2789 0.9546
vn 0.1117 -0.1628 0.9803
vn 0.1136 -0.1214 0.9861
vn 0.1155 -0.0799 0.9901
vn 0.1196 0.0417 0.9919
vn 0.1222 0.1970 0.9728
vn 0.1219 0.3475 0.9297
vn 0.1190 0.4750 0.8719
vn 0.1160 0.5511 0.8263
vn 0.1170 0.5347 0.8369
vn 0.1145 0.5777 0.8082
vn 0.1150 0.5715 0.8125
vn 0.1146 0.5777 0.8082
vn 0.1126 0.6146 0.7807
vn 0.1126 0.6146 0.7808
vn 0.1007 0.7597 0.6424
vn 0.1009 0.7579 0.6445
vn 0.1046 0.7203 0.6857
vn 0.1115 0.6313 0.7675
vn 0.1181 0.5005 0.8576
vn 0.1181 0.5005 0.8577
vn 0.1218 0.3525 0.9278
vn 0.1228 0.2340 0.9645
vn 0.1214 0.1502 0.9812
vn 0.1224 0.2336 0.9646
vn 0.1218 0.1505 0.9811
vn 0.1193 0.0317 0.9923
vn 0.1139 -0.1175 0.9865
vn 0.1066 -0.2542 0.9613
vn 0.1077 -0.2265 0.9680
vn 0.1026 -0.3179 0.9426
vn 0.1039 -0.2953 0.9497
vn 0.0996 -0.3548 0.9296
vn 0.0996 -0.3549 0.9296
vn 0.0956 -0.4044 0.9096
vn 0.0921 -0.4449 0.8908
vn 0.0922 -0.4434 0.8915
vn 0.0894 -0.4739 0.8760
vn 0.0887 -0.4831 0.8710
vn 0.0875 -0.4963 0.8637
vn 0.0883 -0.4831 0.8711
vn 0.0861 -0.5088 0.8565
vn 0.0862 -0.5064 0.8580
vn 0.0864 -0.5053 0.8586
vn 0.0882 -0.4865 0.8692
vn 0.0911 -0.4558 0.8854
vn 0.0908 -0.4583 0.8841
vn 0.0944 -0.4194 0.9029
vn 0.0941 -0.4226 0.9014
vn 0.0976 -0.3804 0.9197
vn 0.0307 -0.3614 0.9319
vn 0.1059 -0.2638 0.9587
vn 0.1018 -0.3251 0.9402
vn 0.1018 -0.3247 0.9403
vn 0.1619 -0.3612 0.9183
vn 0.1059 -0.2640 0.9587
vn 0.1127 -0.1424 0.9834
vn 0.1110 -0.1657 0.9799
vn 0.1161 -0.0742 0.9905
vn 0.1148 -0.0982 0.9885
vn 0.1186 0.0070 0.9929
vn 0.1239 0.3316 0.9352
vn 0.1218 0.1510 0.9810
vn 0.1225 0.2585 0.9582
vn 0.1212 0.3018 0.9456
vn 0.1220 0.3347 0.9344
vn 0.1197 0.4529 0.8835
vn 0.1033 0.5668 0.8173
vn 0.1136 0.5970 0.7941
vn 0.1132 0.5928 0.7973
vn 0.1092 0.6563 0.7465
vn 0.1223 0.2997 0.9461
vn 0.1011 0.5479 0.8304
vn 0.1143 0.5850 0.8030
vn 0.1151 0.6025 0.7898
vn 0.1078 0.6826 0.7228
vn 0.1105 0.6458 0.7554
vn 0.1050 0.6859 0.7201
usemtl None
s off
f 1//1 2//1 3//1
f 3//1 2//1 4//1
f 5//2 1//2 6//2
f 6//3 1//3 3//3
f 7//4 8//4 9//4
f 10//5 9//5 11//5
f 8//6 11//6 9//6
f 4//7 2//7 12//7
f 12//8 2//8 13//8
f 10//7 14//7 2//7
f 2//8 14//8 15//8
f 2//7 15//7 13//7
f 16//9 17//9 10//9
f 18//9 19//9 10//9
f 10//9 19//9 20//9
f 10//10 20//10 21//10
f 22//9 23//9 24//9
f 24//9 23//9 25//9
f 24//9 25//9 10//9
f 10//9 25//9 26//9
f 10//9 26//9 18//9
f 21//9 27//9 10//9
f 10//9 27//9 28//9
f 10//9 28//9 29//9
f 29//10 30//10 10//10
f 10//9 30//9 31//9
f 10//10 31//10 16//10
f 32//11 33//11 10//11
f 10//12 33//12 34//12
f 10//12 34//12 35//12
f 35//12 36//12 10//12
f 10//11 36//11 37//11
f 10//12 37//12 14//12
f 38//13 39//13 10//13
f 10//14 39//14 40//14
f 10//14 40//14 32//14
f 41//15 42//15 10//15
f 10//16 42//16 43//16
f 17//14 44//14 10//14
f 10//15 44//15 45//15
f 43//17 46//17 10//17
f 10//14 46//14 47//14
f 10//14 47//14 38//14
f 45//14 48//14 10//14
f 10//15 48//15 49//15
f 10//14 49//14 41//14
f 24//18 50//18 51//18
f 51//18 52//18 24//18
f 24//18 52//18 53//18
f 24//19 53//19 22//19
f 54//20 50//20 24//20
f 54//20 24//20 55//20
f 55//20 24//20 56//20
f 55//20 56//20 57//20
f 58//20 59//20 56//20
f 56//20 59//20 60//20
f 56//20 60//20 57//20
f 56//21 61//21 62//21
f 62//21 63//21 56//21
f 56//21 63//21 64//21
f 56//21 64//21 58//21
f 61//22 56//22 65//22
f 65//22 56//22 66//22
f 65//23 66//23 67//23
f 68//24 1//24 5//24
f 2//25 9//25 10//25
f 7//26 9//26 2//26
f 1//27 69//27 2//27
f 2//28 69//28 7//28
f 70//29 7//29 69//29
f 70//30 71//30 72//30
f 72//31 8//31 7//31
f 70//32 72//32 7//32
f 72//33 71//33 73//33
f 72//34 73//34 74//34
f 8//35 74//35 11//35
f 74//36 8//36 72//36
f 75//37 76//37 77//37
f 78//38 79//38 80//38
f 66//38 56//38 81//38
f 81//38 56//38 78//38
f 80//38 82//38 78//38
f 78//38 82//38 83//38
f 78//38 83//38 81//38
f 77//39 78//39 75//39
f 10//40 11//40 24//40
f 78//41 56//41 75//41
f 56//42 24//42 11//42
f 11//43 74//43 75//43
f 56//44 11//44 75//44
f 79//45 78//45 84//45
f 84//45 78//45 85//45
f 84//45 85//45 86//45
f 87//46 85//46 88//46
f 88//47 85//47 89//47
f 86//48 85//48 87//48
f 68//49 90//49 1//49
f 1//50 90//50 91//50
f 91//50 90//50 92//50
f 91//50 92//50 93//50
f 70//51 69//51 91//51
f 91//52 69//52 1//52
f 94//53 77//53 76//53
f 75//54 74//54 76//54
f 94//55 76//55 95//55
f 76//56 74//56 73//56
f 95//57 76//57 73//57
f 96//58 71//58 70//58
f 96//59 95//59 73//59
f 96//60 73//60 71//60
f 78//61 77//61 85//61
f 97//62 98//62 94//62
f 85//63 77//63 98//63
f 94//64 98//64 77//64
f 89//65 85//65 99//65
f 99//65 85//65 98//65
f 99//65 98//65 100//65
f 100//66 98//66 101//66
f 102//67 103//67 104//67
f 104//67 103//67 105//67
f 106//68 101//68 98//68
f 106//68 98//68 107//68
f 107//68 98//68 103//68
f 107//68 103//68 102//68
f 103//69 98//69 97//69
f 108//70 109//70 110//70
f 110//71 109//71 111//71
f 112//72 109//72 113//72
f 113//72 109//72 114//72
f 112//73 111//73 109//73
f 115//74 116//74 117//74
f 117//74 116//74 118//74
f 119//75 116//75 120//75
f 118//76 116//76 93//76
f 93//76 116//76 91//76
f 119//77 91//77 116//77
f 96//78 119//78 121//78
f 119//79 70//79 91//79
f 96//80 70//80 119//80
f 114//81 109//81 122//81
f 122//81 109//81 123//81
f 122//82 123//82 124//82
f 124//83 123//83 120//83
f 125//84 116//84 126//84
f 126//84 116//84 115//84
f 120//85 116//85 124//85
f 124//86 116//86 125//86
f 127//87 128//87 129//87
f 129//88 128//88 130//88
f 131//89 132//89 121//89
f 133//90 132//90 131//90
f 96//91 121//91 132//91
f 133//92 96//92 132//92
f 134//93 133//93 135//93
f 134//94 94//94 95//94
f 133//95 95//95 96//95
f 134//96 95//96 133//96
f 103//97 97//97 136//97
f 97//98 135//98 136//98
f 134//99 97//99 94//99
f 135//100 97//100 134//100
f 105//101 103//101 137//101
f 137//101 103//101 136//101
f 137//101 136//101 138//101
f 139//102 140//102 141//102
f 139//103 141//103 136//103
f 136//103 141//103 142//103
f 136//103 142//103 143//103
f 143//103 144//103 136//103
f 136//103 144//103 145//103
f 136//103 145//103 138//103
f 139//104 146//104 147//104
f 147//104 148//104 139//104
f 139//104 148//104 149//104
f 139//105 149//105 150//105
f 140//106 139//106 151//106
f 151//106 139//106 150//106
f 152//107 153//107 154//107
f 155//108 156//108 154//108
f 154//108 156//108 157//108
f 154//108 157//108 158//108
f 158//108 159//108 154//108
f 154//109 159//109 160//109
f 154//108 160//108 161//108
f 161//108 162//108 154//108
f 154//108 162//108 163//108
f 154//108 163//108 164//108
f 164//109 165//109 154//109
f 154//108 165//108 166//108
f 154//109 166//109 152//109
f 167//110 154//110 168//110
f 167//111 169//111 154//111
f 154//111 169//111 170//111
f 170//111 171//111 154//111
f 154//111 171//111 172//111
f 154//111 172//111 155//111
f 109//112 108//112 173//112
f 173//112 108//112 174//112
f 173//112 174//112 175//112
f 169//113 167//113 176//113
f 176//114 167//114 177//114
f 177//115 167//115 178//115
f 178//115 167//115 173//115
f 178//115 173//115 179//115
f 179//115 173//115 175//115
f 109//116 173//116 123//116
f 173//117 131//117 123//117
f 119//118 120//118 121//118
f 131//119 121//119 123//119
f 120//120 123//120 121//120
f 128//121 127//121 139//121
f 139//121 127//121 180//121
f 180//121 181//121 139//121
f 139//121 181//121 182//121
f 139//121 182//121 146//121
f 183//122 184//122 154//122
f 184//122 185//122 154//122
f 154//122 185//122 186//122
f 154//122 186//122 187//122
f 187//123 188//123 154//123
f 154//124 188//124 189//124
f 154//122 189//122 190//122
f 190//122 191//122 154//122
f 154//125 191//125 192//125
f 154//122 192//122 128//122
f 128//122 192//122 193//122
f 153//122 194//122 154//122
f 154//122 194//122 195//122
f 193//122 196//122 128//122
f 128//122 196//122 197//122
f 128//122 197//122 130//122
f 195//122 198//122 154//122
f 154//122 198//122 199//122
f 154//122 199//122 183//122
f 139//126 200//126 128//126
f 200//127 168//127 154//127
f 128//128 200//128 154//128
f 201//129 133//129 131//129
f 135//130 133//130 201//130
f 139//131 136//131 135//131
f 201//132 139//132 135//132
f 167//133 168//133 173//133
f 200//134 202//134 168//134
f 173//135 168//135 202//135
f 173//136 202//136 131//136
f 139//137 201//137 200//137
f 201//138 131//138 202//138
f 201//139 202//139 200//139
f 137//140 138//140 145//140
f 3//141 4//141 12//141
f 110//142 111//142 112//142
f 5//143 6//143 68//143
f 68//144 6//144 115//144
f 68//145 115//145 90//145
f 90//146 115//146 92//146
f 115//147 117//147 92//147
f 92//147 117//147 118//147
f 92//148 118//148 93//148
f 114//149 126//149 113//149
f 113//150 126//150 115//150
f 113//151 115//151 112//151
f 114//152 122//152 126//152
f 126//153 122//153 124//153
f 126//154 124//154 125//154
f 112//155 115//155 110//155
f 110//156 115//156 6//156
f 110//157 6//157 108//157
f 108//158 6//158 3//158
f 108//159 3//159 174//159
f 176//160 177//160 12//160
f 177//161 178//161 12//161
f 12//162 178//162 179//162
f 12//163 179//163 3//163
f 3//164 179//164 175//164
f 3//165 175//165 174//165
f 12//166 13//166 176//166
f 176//167 13//167 15//167
f 176//168 15//168 169//168
f 169//169 15//169 14//169
f 169//170 14//170 170//170
f 14//171 37//171 170//171
f 170//172 37//172 36//172
f 170//173 36//173 171//173
f 171//173 36//173 35//173
f 171//174 35//174 172//174
f 172//175 35//175 34//175
f 172//176 34//176 155//176
f 155//177 34//177 33//177
f 32//178 157//178 33//178
f 33//179 157//179 156//179
f 33//180 156//180 155//180
f 32//181 40//181 157//181
f 157//182 40//182 39//182
f 157//182 39//182 158//182
f 158//183 39//183 38//183
f 158//183 38//183 159//183
f 159//184 38//184 47//184
f 159//184 47//184 160//184
f 160//185 47//185 46//185
f 160//185 46//185 161//185
f 161//186 46//186 43//186
f 161//186 43//186 162//186
f 162//187 43//187 42//187
f 162//188 42//188 163//188
f 42//189 41//189 163//189
f 163//190 41//190 49//190
f 163//190 49//190 164//190
f 164//191 49//191 48//191
f 164//191 48//191 165//191
f 165//192 48//192 45//192
f 165//192 45//192 166//192
f 166//193 45//193 44//193
f 166//193 44//193 152//193
f 152//194 44//194 17//194
f 152//195 17//195 153//195
f 153//196 17//196 16//196
f 153//197 16//197 194//197
f 194//198 16//198 31//198
f 194//197 31//197 195//197
f 195//199 31//199 30//199
f 195//200 30//200 198//200
f 198//201 30//201 29//201
f 198//201 29//201 199//201
f 199//202 29//202 28//202
f 199//202 28//202 183//202
f 183//203 28//203 27//203
f 183//203 27//203 184//203
f 184//204 27//204 21//204
f 184//204 21//204 185//204
f 185//205 21//205 20//205
f 185//206 20//206 186//206
f 186//207 20//207 19//207
f 186//207 19//207 187//207
f 18//208 189//208 19//208
f 19//209 189//209 188//209
f 19//210 188//210 187//210
f 18//211 26//211 189//211
f 189//212 26//212 25//212
f 189//212 25//212 190//212
f 190//213 25//213 23//213
f 190//213 23//213 191//213
f 191//214 23//214 22//214
f 191//215 22//215 192//215
f 192//216 22//216 53//216
f 192//217 53//217 193//217
f 193//218 53//218 52//218
f 193//219 52//219 196//219
f 196//220 52//220 51//220
f 196//220 51//220 197//220
f 197//221 51//221 50//221
f 197//222 50//222 130//222
f 130//223 50//223 54//223
f 130//224 54//224 129//224
f 129//225 54//225 55//225
f 129//226 55//226 127//226
f 127//227 55//227 57//227
f 127//228 57//228 180//228
f 180//228 57//228 181//228
f 181//229 57//229 60//229
f 181//230 60//230 182//230
f 182//230 60//230 59//230
f 182//231 59//231 146//231
f 146//232 59//232 58//232
f 146//233 58//233 147//233
f 147//234 58//234 64//234
f 147//235 64//235 63//235
f 61//236 65//236 62//236
f 62//237 65//237 149//237
f 62//238 149//238 63//238
f 63//239 149//239 148//239
f 63//235 148//235 147//235
f 150//240 149//240 151//240
f 151//241 149//241 65//241
f 151//242 65//242 140//242
f 140//243 65//243 67//243
f 140//244 67//244 141//244
f 141//245 67//245 66//245
f 141//246 66//246 142//246
f 100//247 101//247 83//247
f 66//246 81//246 142//246
f 142//248 81//248 83//248
f 142//248 83//248 143//248
f 143//249 83//249 101//249
f 143//250 101//250 144//250
f 101//251 106//251 144//251
f 144//252 106//252 107//252
f 144//252 107//252 145//252
f 107//253 102//253 104//253
f 145//254 107//254 137//254
f 137//255 107//255 104//255
f 137//256 104//256 105//256
f 83//257 82//257 100//257
f 100//252 82//252 80//252
f 100//252 80//252 99//252
f 80//258 79//258 84//258
f 99//259 80//259 89//259
f 89//260 80//260 84//260
f 89//261 84//261 88//261
f 88//262 84//262 86//262
f 88//263 86//263 87//263
